STARTFONT 2.1
FONT -FontForge-Microsoft Sans Serif-Book-R-Normal-SansSerif-20-190-75-75-P-113-ISO10646-1
SIZE 19 75 75
FONTBOUNDINGBOX 25 25 -2 -5
COMMENT "Generated by fontforge, http://fontforge.sourceforge.net"
COMMENT "(c) 2022 Microsoft Corporation. All rights reserved."
COMMENT ""
COMMENT "Hebrew OpenType Layout logic copyright (c) 2003 & 2007, Ralph Hancock & John Hudson. This layout logic for Biblical Hebrew is open source software under the MIT License; see embedded license description for details."
STARTPROPERTIES 40
FOUNDRY "FontForge"
FAMILY_NAME "Microsoft Sans Serif"
WEIGHT_NAME "Book"
SLANT "R"
SETWIDTH_NAME "Normal"
ADD_STYLE_NAME "SansSerif"
PIXEL_SIZE 20
POINT_SIZE 190
RESOLUTION_X 75
RESOLUTION_Y 75
SPACING "P"
AVERAGE_WIDTH 113
CHARSET_REGISTRY "ISO10646"
CHARSET_ENCODING "1"
FONTNAME_REGISTRY ""
CHARSET_COLLECTIONS "ISO8859-2 ISO8859-9 ISO8859-4 ISO10646-1"
FONT_NAME "MicrosoftSansSerif"
FACE_NAME "Microsoft Sans Serif"
COPYRIGHT "(c) 2022 Microsoft Corporation. All rights reserved."
FONT_VERSION "7.02"
FONT_ASCENT 16
FONT_DESCENT 4
UNDERLINE_POSITION -3
UNDERLINE_THICKNESS 1
X_HEIGHT 10
CAP_HEIGHT 14
RAW_ASCENT 799
RAW_DESCENT 200
NORM_SPACE 5
RELATIVE_WEIGHT 40
RELATIVE_SETWIDTH 50
SUPERSCRIPT_X 0
SUPERSCRIPT_Y 9
SUPERSCRIPT_SIZE 12
SUBSCRIPT_X 0
SUBSCRIPT_Y 2
SUBSCRIPT_SIZE 12
FIGURE_WIDTH 11
AVG_LOWERCASE_WIDTH 100
AVG_UPPERCASE_WIDTH 136
ENDPROPERTIES
CHARS 628
STARTCHAR space
ENCODING 32
SWIDTH 265 0
DWIDTH 5 0
BBX 1 1 0 0
BITMAP
00
ENDCHAR
STARTCHAR exclam
ENCODING 33
SWIDTH 277 0
DWIDTH 6 0
BBX 2 15 2 0
BITMAP
C0
C0
C0
C0
C0
C0
C0
C0
C0
C0
C0
00
00
C0
C0
ENDCHAR
STARTCHAR quotedbl
ENCODING 34
SWIDTH 354 0
DWIDTH 7 0
BBX 5 5 1 10
BITMAP
D8
D8
D8
D8
D8
ENDCHAR
STARTCHAR numbersign
ENCODING 35
SWIDTH 556 0
DWIDTH 11 0
BBX 11 15 0 0
BITMAP
0CC0
0CC0
0DC0
1980
7FE0
7FE0
1980
3380
3300
FFC0
FFC0
3300
6600
6600
6600
ENDCHAR
STARTCHAR dollar
ENCODING 36
SWIDTH 556 0
DWIDTH 11 0
BBX 9 19 1 -2
BITMAP
0800
0800
3E00
7F00
EB80
C980
C800
E800
7800
3F00
0B80
0980
0980
C980
EB80
7F00
3E00
0800
0800
ENDCHAR
STARTCHAR percent
ENCODING 37
SWIDTH 889 0
DWIDTH 18 0
BBX 16 15 1 0
BITMAP
3808
6C10
C620
C620
C640
C640
6C80
391C
0136
0263
0263
0463
0863
0836
101C
ENDCHAR
STARTCHAR ampersand
ENCODING 38
SWIDTH 666 0
DWIDTH 13 0
BBX 10 15 1 0
BITMAP
1E00
3F00
3300
3300
3300
1E00
1C00
3C00
66C0
C6C0
C3C0
C180
E380
7FC0
3C80
ENDCHAR
STARTCHAR quotesingle
ENCODING 39
SWIDTH 190 0
DWIDTH 4 0
BBX 2 5 1 10
BITMAP
C0
C0
C0
C0
C0
ENDCHAR
STARTCHAR parenleft
ENCODING 40
SWIDTH 333 0
DWIDTH 7 0
BBX 5 20 1 -5
BITMAP
18
10
30
20
60
60
C0
C0
C0
C0
C0
C0
C0
C0
60
60
20
30
10
18
ENDCHAR
STARTCHAR parenright
ENCODING 41
SWIDTH 333 0
DWIDTH 7 0
BBX 5 20 1 -5
BITMAP
C0
40
60
20
30
30
18
18
18
18
18
18
18
18
30
30
20
60
40
C0
ENDCHAR
STARTCHAR asterisk
ENCODING 42
SWIDTH 389 0
DWIDTH 8 0
BBX 7 6 0 9
BITMAP
10
92
FE
38
6C
44
ENDCHAR
STARTCHAR plus
ENCODING 43
SWIDTH 583 0
DWIDTH 12 0
BBX 10 10 1 2
BITMAP
0C00
0C00
0C00
0C00
FFC0
FFC0
0C00
0C00
0C00
0C00
ENDCHAR
STARTCHAR comma
ENCODING 44
SWIDTH 277 0
DWIDTH 5 0
BBX 2 5 1 -3
BITMAP
C0
C0
40
40
80
ENDCHAR
STARTCHAR hyphen
ENCODING 45
SWIDTH 333 0
DWIDTH 7 0
BBX 5 2 1 4
BITMAP
F8
F8
ENDCHAR
STARTCHAR period
ENCODING 46
SWIDTH 277 0
DWIDTH 5 0
BBX 2 2 1 0
BITMAP
C0
C0
ENDCHAR
STARTCHAR slash
ENCODING 47
SWIDTH 277 0
DWIDTH 6 0
BBX 6 15 0 0
BITMAP
04
0C
08
08
18
10
10
30
20
20
60
40
40
C0
80
ENDCHAR
STARTCHAR zero
ENCODING 48
SWIDTH 556 0
DWIDTH 11 0
BBX 9 15 1 0
BITMAP
3E00
7F00
6300
E380
C180
C180
C180
C180
C180
C180
C180
E380
6300
7F00
3E00
ENDCHAR
STARTCHAR one
ENCODING 49
SWIDTH 556 0
DWIDTH 11 0
BBX 5 15 2 0
BITMAP
18
18
38
F8
D8
18
18
18
18
18
18
18
18
18
18
ENDCHAR
STARTCHAR two
ENCODING 50
SWIDTH 556 0
DWIDTH 11 0
BBX 9 15 1 0
BITMAP
3E00
7F00
E380
C180
0180
0180
0300
0300
0600
0C00
1800
3000
6000
FF80
FF80
ENDCHAR
STARTCHAR three
ENCODING 51
SWIDTH 556 0
DWIDTH 11 0
BBX 9 15 1 0
BITMAP
3C00
7E00
E300
C300
0300
0300
0E00
0F00
0380
0180
0180
C180
E380
7F00
3E00
ENDCHAR
STARTCHAR four
ENCODING 52
SWIDTH 556 0
DWIDTH 11 0
BBX 10 15 0 0
BITMAP
0300
0700
0700
0F00
1B00
1B00
3300
6300
C300
FFC0
FFC0
0300
0300
0300
0300
ENDCHAR
STARTCHAR five
ENCODING 53
SWIDTH 556 0
DWIDTH 11 0
BBX 9 15 1 0
BITMAP
7F00
7F00
6000
6000
C000
FE00
FF00
C380
0180
0180
0180
C180
E300
7F00
3E00
ENDCHAR
STARTCHAR six
ENCODING 54
SWIDTH 556 0
DWIDTH 11 0
BBX 9 15 1 0
BITMAP
1E00
3F00
6380
6180
C000
DE00
FF00
E380
C180
C180
C180
E180
6300
7F00
1E00
ENDCHAR
STARTCHAR seven
ENCODING 55
SWIDTH 556 0
DWIDTH 11 0
BBX 9 15 1 0
BITMAP
FF80
FF80
0180
0300
0300
0300
0600
0600
0C00
0C00
0C00
1800
1800
1800
3000
ENDCHAR
STARTCHAR eight
ENCODING 56
SWIDTH 556 0
DWIDTH 11 0
BBX 9 15 1 0
BITMAP
1C00
3E00
6300
6300
6300
3600
3E00
3E00
7700
C180
C180
C180
E380
7F00
3E00
ENDCHAR
STARTCHAR nine
ENCODING 57
SWIDTH 556 0
DWIDTH 11 0
BBX 9 15 1 0
BITMAP
3C00
7F00
6300
C380
C180
C180
C180
E380
7F80
3D80
0180
C300
E300
7E00
3C00
ENDCHAR
STARTCHAR colon
ENCODING 58
SWIDTH 277 0
DWIDTH 6 0
BBX 2 10 2 0
BITMAP
C0
C0
00
00
00
00
00
00
C0
C0
ENDCHAR
STARTCHAR less
ENCODING 60
SWIDTH 583 0
DWIDTH 12 0
BBX 10 10 1 2
BITMAP
0040
03C0
0F80
3C00
F000
F000
3C00
0F80
03C0
0040
ENDCHAR
STARTCHAR equal
ENCODING 61
SWIDTH 583 0
DWIDTH 12 0
BBX 10 6 1 4
BITMAP
FFC0
FFC0
0000
0000
FFC0
FFC0
ENDCHAR
STARTCHAR greater
ENCODING 62
SWIDTH 583 0
DWIDTH 12 0
BBX 10 10 1 2
BITMAP
8000
F000
7C00
0F00
03C0
03C0
0F00
7C00
F000
8000
ENDCHAR
STARTCHAR question
ENCODING 63
SWIDTH 556 0
DWIDTH 11 0
BBX 8 15 1 0
BITMAP
3C
7E
E7
C3
03
03
06
0C
1C
18
18
00
00
18
18
ENDCHAR
STARTCHAR at
ENCODING 64
SWIDTH 1015 0
DWIDTH 20 0
BBX 18 20 1 -5
BITMAP
03F800
0E0E00
180300
300180
31ED80
63F8C0
6738C0
C618C0
CC18C0
CC38C0
CC31C0
CC3180
CE7380
C7FF00
63BC00
600000
300000
180000
0E0600
03FC00
ENDCHAR
STARTCHAR A
ENCODING 65
SWIDTH 666 0
DWIDTH 14 0
BBX 13 15 0 0
BITMAP
0700
0700
0D80
0D80
0D80
18C0
18C0
18C0
3060
3FE0
7FF0
6030
6030
C018
C018
ENDCHAR
STARTCHAR B
ENCODING 66
SWIDTH 666 0
DWIDTH 13 0
BBX 10 15 1 0
BITMAP
FE00
FF00
C380
C180
C180
C380
FF00
FF80
C1C0
C0C0
C0C0
C0C0
C1C0
FF80
FF00
ENDCHAR
STARTCHAR C
ENCODING 67
SWIDTH 722 0
DWIDTH 15 0
BBX 12 15 1 0
BITMAP
0F80
3FC0
70E0
6030
E030
C000
C000
C000
C000
C000
E030
6030
70E0
3FC0
0F80
ENDCHAR
STARTCHAR D
ENCODING 68
SWIDTH 722 0
DWIDTH 14 0
BBX 11 15 1 0
BITMAP
FE00
FF80
C1C0
C0C0
C060
C060
C060
C060
C060
C060
C060
C0C0
C1C0
FF80
FE00
ENDCHAR
STARTCHAR E
ENCODING 69
SWIDTH 666 0
DWIDTH 13 0
BBX 10 15 1 0
BITMAP
FFC0
FFC0
C000
C000
C000
C000
FF80
FF80
C000
C000
C000
C000
C000
FFC0
FFC0
ENDCHAR
STARTCHAR F
ENCODING 70
SWIDTH 610 0
DWIDTH 12 0
BBX 10 15 1 0
BITMAP
FFC0
FFC0
C000
C000
C000
C000
FF80
FF80
C000
C000
C000
C000
C000
C000
C000
ENDCHAR
STARTCHAR G
ENCODING 71
SWIDTH 777 0
DWIDTH 15 0
BBX 12 15 1 0
BITMAP
0F80
3FC0
70E0
6030
E030
C000
C000
C3F0
C3F0
C030
E030
6030
70F0
3FF0
0FB0
ENDCHAR
STARTCHAR H
ENCODING 72
SWIDTH 722 0
DWIDTH 14 0
BBX 11 15 1 0
BITMAP
C060
C060
C060
C060
C060
C060
FFE0
FFE0
C060
C060
C060
C060
C060
C060
C060
ENDCHAR
STARTCHAR I
ENCODING 73
SWIDTH 277 0
DWIDTH 5 0
BBX 2 15 1 0
BITMAP
C0
C0
C0
C0
C0
C0
C0
C0
C0
C0
C0
C0
C0
C0
C0
ENDCHAR
STARTCHAR J
ENCODING 74
SWIDTH 500 0
DWIDTH 11 0
BBX 8 15 1 0
BITMAP
03
03
03
03
03
03
03
03
03
03
03
C3
C7
7E
3C
ENDCHAR
STARTCHAR K
ENCODING 75
SWIDTH 666 0
DWIDTH 14 0
BBX 12 15 1 0
BITMAP
C060
C0C0
C180
C300
C600
CC00
DC00
FC00
E600
C300
C180
C180
C0C0
C060
C030
ENDCHAR
STARTCHAR L
ENCODING 76
SWIDTH 556 0
DWIDTH 11 0
BBX 10 15 1 0
BITMAP
C000
C000
C000
C000
C000
C000
C000
C000
C000
C000
C000
C000
C000
FFC0
FFC0
ENDCHAR
STARTCHAR M
ENCODING 77
SWIDTH 833 0
DWIDTH 17 0
BBX 14 15 1 0
BITMAP
E01C
F03C
F03C
F03C
D86C
D86C
D86C
CCCC
CCCC
CCCC
C78C
C78C
C78C
C30C
C30C
ENDCHAR
STARTCHAR N
ENCODING 78
SWIDTH 722 0
DWIDTH 14 0
BBX 11 15 1 0
BITMAP
C060
E060
F060
F060
D860
D860
CC60
CE60
C660
C360
C360
C1E0
C1E0
C0E0
C060
ENDCHAR
STARTCHAR O
ENCODING 79
SWIDTH 777 0
DWIDTH 16 0
BBX 13 15 1 0
BITMAP
0F80
3FE0
7070
6030
E038
C018
C018
C018
C018
C018
E038
6030
7070
3FE0
0F80
ENDCHAR
STARTCHAR P
ENCODING 80
SWIDTH 666 0
DWIDTH 13 0
BBX 10 15 1 0
BITMAP
FF00
FF80
C1C0
C0C0
C0C0
C0C0
C1C0
FF80
FF00
C000
C000
C000
C000
C000
C000
ENDCHAR
STARTCHAR Q
ENCODING 81
SWIDTH 777 0
DWIDTH 16 0
BBX 13 16 1 -1
BITMAP
0F80
3FE0
7070
6030
E038
C018
C018
C018
C018
C018
E0B8
61B0
70F0
3FF0
0F98
0008
ENDCHAR
STARTCHAR R
ENCODING 82
SWIDTH 722 0
DWIDTH 13 0
BBX 11 15 1 0
BITMAP
FF80
FFC0
C0E0
C060
C060
C060
C0C0
FFC0
FF00
C380
C180
C0C0
C0C0
C0C0
C060
ENDCHAR
STARTCHAR S
ENCODING 83
SWIDTH 666 0
DWIDTH 14 0
BBX 11 15 1 0
BITMAP
1F00
7FC0
E0E0
C060
C000
E000
7E00
1F80
01C0
0060
C060
C060
70E0
7FC0
1F00
ENDCHAR
STARTCHAR T
ENCODING 84
SWIDTH 610 0
DWIDTH 13 0
BBX 12 15 0 0
BITMAP
FFF0
FFF0
0600
0600
0600
0600
0600
0600
0600
0600
0600
0600
0600
0600
0600
ENDCHAR
STARTCHAR U
ENCODING 85
SWIDTH 722 0
DWIDTH 14 0
BBX 11 15 1 0
BITMAP
C060
C060
C060
C060
C060
C060
C060
C060
C060
C060
C060
C060
60C0
7FC0
1F00
ENDCHAR
STARTCHAR V
ENCODING 86
SWIDTH 666 0
DWIDTH 14 0
BBX 13 15 0 0
BITMAP
C018
C018
6030
6030
6030
3060
3060
18C0
18C0
18C0
0D80
0D80
0700
0700
0700
ENDCHAR
STARTCHAR W
ENCODING 87
SWIDTH 943 0
DWIDTH 20 0
BBX 19 15 0 0
BITMAP
C0E060
C0E060
60E0C0
61B0C0
61B0C0
61B0C0
331980
331980
331980
1B1B00
1E0F00
1E0F00
1E0F00
0C0600
0C0600
ENDCHAR
STARTCHAR X
ENCODING 88
SWIDTH 666 0
DWIDTH 14 0
BBX 13 15 0 0
BITMAP
C018
6030
3060
18C0
18C0
0D80
0700
0200
0700
0D80
18C0
18C0
3060
6030
C018
ENDCHAR
STARTCHAR Y
ENCODING 89
SWIDTH 666 0
DWIDTH 13 0
BBX 12 15 0 0
BITMAP
C030
E070
6060
30C0
30C0
1980
0F00
0F00
0600
0600
0600
0600
0600
0600
0600
ENDCHAR
STARTCHAR Z
ENCODING 90
SWIDTH 610 0
DWIDTH 12 0
BBX 9 15 1 0
BITMAP
FF80
FF80
0180
0300
0600
0600
0C00
1C00
1800
3000
3000
6000
C000
FF80
FF80
ENDCHAR
STARTCHAR bracketleft
ENCODING 91
SWIDTH 277 0
DWIDTH 6 0
BBX 4 20 1 -5
BITMAP
F0
F0
C0
C0
C0
C0
C0
C0
C0
C0
C0
C0
C0
C0
C0
C0
C0
C0
F0
F0
ENDCHAR
STARTCHAR backslash
ENCODING 92
SWIDTH 277 0
DWIDTH 6 0
BBX 6 15 0 0
BITMAP
80
C0
40
40
60
20
20
30
10
10
18
08
08
0C
04
ENDCHAR
STARTCHAR bracketright
ENCODING 93
SWIDTH 277 0
DWIDTH 6 0
BBX 4 20 1 -5
BITMAP
F0
F0
30
30
30
30
30
30
30
30
30
30
30
30
30
30
30
30
F0
F0
ENDCHAR
STARTCHAR asciicircum
ENCODING 94
SWIDTH 469 0
DWIDTH 7 0
BBX 7 6 0 9
BITMAP
10
38
38
6C
6C
C6
ENDCHAR
STARTCHAR underscore
ENCODING 95
SWIDTH 551 0
DWIDTH 11 0
BBX 11 1 0 -3
BITMAP
FFE0
ENDCHAR
STARTCHAR grave
ENCODING 96
SWIDTH 333 0
DWIDTH 7 0
BBX 4 3 1 12
BITMAP
E0
60
30
ENDCHAR
STARTCHAR a
ENCODING 97
SWIDTH 556 0
DWIDTH 11 0
BBX 9 11 1 0
BITMAP
3E00
7F00
C180
0180
3F80
7F80
E180
C180
C380
FF80
7D80
ENDCHAR
STARTCHAR b
ENCODING 98
SWIDTH 556 0
DWIDTH 11 0
BBX 9 15 1 0
BITMAP
C000
C000
C000
C000
DE00
FF00
E380
C180
C180
C180
C180
C180
E380
FF00
DE00
ENDCHAR
STARTCHAR c
ENCODING 99
SWIDTH 500 0
DWIDTH 10 0
BBX 9 11 1 0
BITMAP
3E00
7F00
E180
C000
C000
C000
C000
C000
E180
7F00
3E00
ENDCHAR
STARTCHAR d
ENCODING 100
SWIDTH 556 0
DWIDTH 11 0
BBX 9 15 1 0
BITMAP
0180
0180
0180
0180
3D80
7F80
E380
C180
C180
C180
C180
C180
E380
7F80
3D80
ENDCHAR
STARTCHAR e
ENCODING 101
SWIDTH 556 0
DWIDTH 11 0
BBX 9 11 1 0
BITMAP
3E00
7F00
E380
C180
FF80
FF80
C000
C000
E180
7F00
3E00
ENDCHAR
STARTCHAR f
ENCODING 102
SWIDTH 277 0
DWIDTH 5 0
BBX 4 15 0 0
BITMAP
30
70
60
60
F0
F0
60
60
60
60
60
60
60
60
60
ENDCHAR
STARTCHAR g
ENCODING 103
SWIDTH 556 0
DWIDTH 11 0
BBX 9 16 1 -5
BITMAP
3D80
7F80
E380
C180
C180
C180
C180
C180
E380
7F80
3D80
0180
0180
C300
FF00
7E00
ENDCHAR
STARTCHAR h
ENCODING 104
SWIDTH 556 0
DWIDTH 11 0
BBX 9 15 1 0
BITMAP
C000
C000
C000
C000
DE00
FF00
E380
C180
C180
C180
C180
C180
C180
C180
C180
ENDCHAR
STARTCHAR i
ENCODING 105
SWIDTH 228 0
DWIDTH 4 0
BBX 2 15 1 0
BITMAP
C0
C0
00
00
C0
C0
C0
C0
C0
C0
C0
C0
C0
C0
C0
ENDCHAR
STARTCHAR j
ENCODING 106
SWIDTH 228 0
DWIDTH 4 0
BBX 3 20 0 -5
BITMAP
60
60
00
00
60
60
60
60
60
60
60
60
60
60
60
60
60
60
E0
C0
ENDCHAR
STARTCHAR k
ENCODING 107
SWIDTH 500 0
DWIDTH 10 0
BBX 9 15 1 0
BITMAP
C000
C000
C000
C000
C300
C600
CC00
D800
F000
F800
CC00
C600
C600
C300
C180
ENDCHAR
STARTCHAR l
ENCODING 108
SWIDTH 228 0
DWIDTH 4 0
BBX 2 15 1 0
BITMAP
C0
C0
C0
C0
C0
C0
C0
C0
C0
C0
C0
C0
C0
C0
C0
ENDCHAR
STARTCHAR m
ENCODING 109
SWIDTH 833 0
DWIDTH 16 0
BBX 14 11 1 0
BITMAP
DE78
FFFC
E38C
C30C
C30C
C30C
C30C
C30C
C30C
C30C
C30C
ENDCHAR
STARTCHAR n
ENCODING 110
SWIDTH 556 0
DWIDTH 11 0
BBX 9 11 1 0
BITMAP
DE00
FF00
E380
C180
C180
C180
C180
C180
C180
C180
C180
ENDCHAR
STARTCHAR o
ENCODING 111
SWIDTH 556 0
DWIDTH 11 0
BBX 9 11 1 0
BITMAP
3E00
7F00
E380
C180
C180
C180
C180
C180
E380
7F00
3E00
ENDCHAR
STARTCHAR p
ENCODING 112
SWIDTH 556 0
DWIDTH 11 0
BBX 9 16 1 -5
BITMAP
DE00
FF00
E380
C180
C180
C180
C180
C180
E380
FF00
DE00
C000
C000
C000
C000
C000
ENDCHAR
STARTCHAR q
ENCODING 113
SWIDTH 556 0
DWIDTH 11 0
BBX 9 16 1 -5
BITMAP
3D80
7F80
E380
C180
C180
C180
C180
C180
E380
7F80
3D80
0180
0180
0180
0180
0180
ENDCHAR
STARTCHAR r
ENCODING 114
SWIDTH 333 0
DWIDTH 6 0
BBX 5 11 1 0
BITMAP
D8
F8
E0
C0
C0
C0
C0
C0
C0
C0
C0
ENDCHAR
STARTCHAR s
ENCODING 115
SWIDTH 500 0
DWIDTH 10 0
BBX 8 11 1 0
BITMAP
3C
FF
C3
C0
F8
3E
07
03
C3
FE
3C
ENDCHAR
STARTCHAR t
ENCODING 116
SWIDTH 277 0
DWIDTH 5 0
BBX 5 14 0 0
BITMAP
60
60
60
F8
F8
60
60
60
60
60
60
60
78
38
ENDCHAR
STARTCHAR u
ENCODING 117
SWIDTH 556 0
DWIDTH 11 0
BBX 9 11 1 0
BITMAP
C180
C180
C180
C180
C180
C180
C180
C180
E380
7F80
3D80
ENDCHAR
STARTCHAR v
ENCODING 118
SWIDTH 500 0
DWIDTH 10 0
BBX 10 11 0 0
BITMAP
C0C0
C0C0
6180
6180
6180
3300
3300
1E00
1E00
0C00
0C00
ENDCHAR
STARTCHAR w
ENCODING 119
SWIDTH 722 0
DWIDTH 14 0
BBX 14 11 0 0
BITMAP
C30C
C30C
6798
6798
6798
34B0
3CF0
3CF0
3870
1860
1860
ENDCHAR
STARTCHAR x
ENCODING 120
SWIDTH 500 0
DWIDTH 10 0
BBX 10 11 0 0
BITMAP
C0C0
6180
3300
3300
1E00
0C00
1E00
3300
3300
6180
C0C0
ENDCHAR
STARTCHAR y
ENCODING 121
SWIDTH 500 0
DWIDTH 10 0
BBX 10 16 0 -5
BITMAP
C0C0
C0C0
6180
6180
6180
3300
3300
1E00
1E00
0C00
0C00
0C00
0800
1800
7000
7000
ENDCHAR
STARTCHAR z
ENCODING 122
SWIDTH 500 0
DWIDTH 10 0
BBX 8 11 1 0
BITMAP
FF
FF
03
06
0C
18
30
60
C0
FF
FF
ENDCHAR
STARTCHAR braceleft
ENCODING 123
SWIDTH 333 0
DWIDTH 7 0
BBX 6 20 1 -5
BITMAP
1C
3C
30
30
30
30
30
30
70
E0
E0
70
30
30
30
30
30
30
3C
1C
ENDCHAR
STARTCHAR bar
ENCODING 124
SWIDTH 259 0
DWIDTH 5 0
BBX 2 20 1 -5
BITMAP
C0
C0
C0
C0
C0
C0
C0
C0
C0
C0
C0
C0
C0
C0
C0
C0
C0
C0
C0
C0
ENDCHAR
STARTCHAR braceright
ENCODING 125
SWIDTH 333 0
DWIDTH 7 0
BBX 6 20 0 -5
BITMAP
E0
F0
30
30
30
30
30
30
38
1C
1C
38
30
30
30
30
30
30
F0
E0
ENDCHAR
STARTCHAR asciitilde
ENCODING 126
SWIDTH 583 0
DWIDTH 7 0
BBX 7 3 0 12
BITMAP
72
FE
9C
ENDCHAR
STARTCHAR space.dup1
ENCODING 160
SWIDTH 265 0
DWIDTH 5 0
BBX 1 1 0 0
BITMAP
00
ENDCHAR
STARTCHAR exclamdown
ENCODING 161
SWIDTH 277 0
DWIDTH 7 0
BBX 2 16 2 -5
BITMAP
C0
C0
00
00
C0
C0
C0
C0
C0
C0
C0
C0
C0
C0
C0
C0
ENDCHAR
STARTCHAR cent
ENCODING 162
SWIDTH 556 0
DWIDTH 11 0
BBX 9 15 1 -2
BITMAP
0200
0200
3E00
7F00
6580
C400
C800
C800
C800
D000
7180
7F00
3E00
2000
2000
ENDCHAR
STARTCHAR sterling
ENCODING 163
SWIDTH 556 0
DWIDTH 11 0
BBX 10 15 0 0
BITMAP
1F00
3F80
71C0
60C0
6000
6000
6000
FE00
FE00
3000
3000
2000
7C40
FFC0
83C0
ENDCHAR
STARTCHAR currency
ENCODING 164
SWIDTH 556 0
DWIDTH 11 0
BBX 10 10 0 2
BITMAP
4080
FFC0
7F80
7380
6180
6180
7380
7F80
FFC0
4080
ENDCHAR
STARTCHAR yen
ENCODING 165
SWIDTH 556 0
DWIDTH 11 0
BBX 12 15 -1 0
BITMAP
C030
6060
6060
30C0
1980
1980
0F00
7FE0
7FE0
0600
7FE0
7FE0
0600
0600
0600
ENDCHAR
STARTCHAR brokenbar
ENCODING 166
SWIDTH 259 0
DWIDTH 5 0
BBX 2 20 1 -5
BITMAP
C0
C0
C0
C0
C0
C0
C0
C0
00
00
00
00
C0
C0
C0
C0
C0
C0
C0
C0
ENDCHAR
STARTCHAR section
ENCODING 167
SWIDTH 556 0
DWIDTH 11 0
BBX 9 20 1 -5
BITMAP
3C00
3F00
6300
6000
7000
3800
7C00
CE00
C700
C380
E180
7180
3B00
1E00
0600
0300
6300
6300
3E00
1C00
ENDCHAR
STARTCHAR dieresis
ENCODING 168
SWIDTH 333 0
DWIDTH 7 0
BBX 6 2 1 12
BITMAP
CC
CC
ENDCHAR
STARTCHAR copyright
ENCODING 169
SWIDTH 736 0
DWIDTH 15 0
BBX 15 15 0 0
BITMAP
07C0
1830
2008
43C4
4664
8C02
8C02
8C02
8C02
8C02
4664
43C4
2008
1830
07C0
ENDCHAR
STARTCHAR ordfeminine
ENCODING 170
SWIDTH 370 0
DWIDTH 7 0
BBX 6 9 0 6
BITMAP
78
CC
0C
7C
CC
CC
7C
00
FC
ENDCHAR
STARTCHAR guillemotleft
ENCODING 171
SWIDTH 556 0
DWIDTH 11 0
BBX 9 9 1 1
BITMAP
1980
3300
2200
6600
CC00
6600
2200
3300
1980
ENDCHAR
STARTCHAR logicalnot
ENCODING 172
SWIDTH 583 0
DWIDTH 12 0
BBX 10 6 1 4
BITMAP
FFC0
FFC0
00C0
00C0
00C0
00C0
ENDCHAR
STARTCHAR hyphen.dup2
ENCODING 173
SWIDTH 333 0
DWIDTH 7 0
BBX 5 2 1 4
BITMAP
F8
F8
ENDCHAR
STARTCHAR registered
ENCODING 174
SWIDTH 736 0
DWIDTH 15 0
BBX 15 15 0 0
BITMAP
07C0
1830
2008
4004
4FC4
8C62
8C62
8C62
8FC2
8CC2
4CC4
4C64
2008
1830
07C0
ENDCHAR
STARTCHAR macron
ENCODING 175
SWIDTH 500 0
DWIDTH 11 0
BBX 11 1 0 16
BITMAP
FFE0
ENDCHAR
STARTCHAR degree
ENCODING 176
SWIDTH 399 0
DWIDTH 8 0
BBX 5 5 1 10
BITMAP
70
88
88
88
70
ENDCHAR
STARTCHAR plusminus
ENCODING 177
SWIDTH 583 0
DWIDTH 12 0
BBX 10 12 1 0
BITMAP
0C00
0C00
0C00
0C00
FFC0
FFC0
0C00
0C00
0C00
0C00
FFC0
FFC0
ENDCHAR
STARTCHAR uni00B2
ENCODING 178
SWIDTH 333 0
DWIDTH 7 0
BBX 6 7 0 8
BITMAP
78
CC
0C
18
30
60
FC
ENDCHAR
STARTCHAR uni00B3
ENCODING 179
SWIDTH 333 0
DWIDTH 7 0
BBX 6 7 0 8
BITMAP
78
CC
0C
30
0C
CC
78
ENDCHAR
STARTCHAR acute
ENCODING 180
SWIDTH 333 0
DWIDTH 7 0
BBX 4 3 2 12
BITMAP
70
60
C0
ENDCHAR
STARTCHAR mu
ENCODING 181
SWIDTH 556 0
DWIDTH 11 0
BBX 10 16 1 -5
BITMAP
C180
C180
C180
C180
C180
C180
C180
C180
E380
FFC0
FCC0
C000
C000
C000
C000
C000
ENDCHAR
STARTCHAR paragraph
ENCODING 182
SWIDTH 537 0
DWIDTH 11 0
BBX 11 20 0 -5
BITMAP
3FE0
7FE0
FCC0
FCC0
FCC0
FCC0
7CC0
3CC0
0CC0
0CC0
0CC0
0CC0
0CC0
0CC0
0CC0
0CC0
0CC0
0CC0
0CC0
0CC0
ENDCHAR
STARTCHAR periodcentered
ENCODING 183
SWIDTH 277 0
DWIDTH 5 0
BBX 2 2 1 6
BITMAP
C0
C0
ENDCHAR
STARTCHAR cedilla
ENCODING 184
SWIDTH 333 0
DWIDTH 7 0
BBX 4 5 1 -5
BITMAP
40
60
30
30
E0
ENDCHAR
STARTCHAR uni00B9
ENCODING 185
SWIDTH 333 0
DWIDTH 7 0
BBX 4 7 1 8
BITMAP
30
30
F0
30
30
30
30
ENDCHAR
STARTCHAR ordmasculine
ENCODING 186
SWIDTH 365 0
DWIDTH 7 0
BBX 6 9 0 6
BITMAP
78
CC
CC
CC
CC
CC
78
00
FC
ENDCHAR
STARTCHAR guillemotright
ENCODING 187
SWIDTH 556 0
DWIDTH 11 0
BBX 9 9 1 1
BITMAP
CC00
6600
2200
3300
1980
3300
2200
6600
CC00
ENDCHAR
STARTCHAR onequarter
ENCODING 188
SWIDTH 833 0
DWIDTH 17 0
BBX 14 15 1 0
BITMAP
100C
3008
F010
3020
3020
3040
3080
0100
0118
0218
0438
0858
0898
10FC
2018
ENDCHAR
STARTCHAR onehalf
ENCODING 189
SWIDTH 833 0
DWIDTH 17 0
BBX 15 15 1 0
BITMAP
1008
3010
F010
3020
3040
3080
3080
0100
023C
0466
0406
080C
1030
1070
607E
ENDCHAR
STARTCHAR threequarters
ENCODING 190
SWIDTH 833 0
DWIDTH 17 0
BBX 15 15 0 0
BITMAP
7804
CC08
0C10
3820
0C20
CC40
7880
0100
010C
020C
041C
042C
084C
107E
200C
ENDCHAR
STARTCHAR questiondown
ENCODING 191
SWIDTH 556 0
DWIDTH 12 0
BBX 8 16 2 -5
BITMAP
18
18
00
00
18
18
18
30
70
E0
C0
C0
C3
E7
7E
3C
ENDCHAR
STARTCHAR Agrave
ENCODING 192
SWIDTH 666 0
DWIDTH 14 0
BBX 13 19 0 0
BITMAP
0E00
0600
0300
0000
0700
0700
0D80
0D80
0D80
18C0
18C0
18C0
3060
3FE0
7FF0
6030
6030
C018
C018
ENDCHAR
STARTCHAR Aacute
ENCODING 193
SWIDTH 666 0
DWIDTH 14 0
BBX 13 19 0 0
BITMAP
0380
0300
0600
0000
0700
0700
0D80
0D80
0D80
18C0
18C0
18C0
3060
3FE0
7FF0
6030
6030
C018
C018
ENDCHAR
STARTCHAR Acircumflex
ENCODING 194
SWIDTH 666 0
DWIDTH 14 0
BBX 13 19 0 0
BITMAP
0600
0F00
1980
0000
0700
0700
0D80
0D80
0D80
18C0
18C0
18C0
3060
3FE0
7FF0
6030
6030
C018
C018
ENDCHAR
STARTCHAR Atilde
ENCODING 195
SWIDTH 666 0
DWIDTH 14 0
BBX 13 18 0 0
BITMAP
0E40
13C0
0000
0700
0700
0D80
0D80
0D80
18C0
18C0
18C0
3060
3FE0
7FF0
6030
6030
C018
C018
ENDCHAR
STARTCHAR Adieresis
ENCODING 196
SWIDTH 666 0
DWIDTH 14 0
BBX 13 18 0 0
BITMAP
1980
1980
0000
0700
0700
0D80
0D80
0D80
18C0
18C0
18C0
3060
3FE0
7FF0
6030
6030
C018
C018
ENDCHAR
STARTCHAR Aring
ENCODING 197
SWIDTH 666 0
DWIDTH 14 0
BBX 13 19 0 0
BITMAP
0600
0900
0900
0600
0700
0700
0D80
0D80
0D80
18C0
18C0
18C0
3060
3FE0
7FF0
6030
6030
C018
C018
ENDCHAR
STARTCHAR AE
ENCODING 198
SWIDTH 1000 0
DWIDTH 21 0
BBX 19 15 0 0
BITMAP
00FFE0
00FFE0
01B000
01B000
033000
033000
063FC0
0C3FC0
0C3000
1FF000
1FF000
303000
603000
603FE0
C03FE0
ENDCHAR
STARTCHAR Ccedilla
ENCODING 199
SWIDTH 722 0
DWIDTH 15 0
BBX 12 19 1 -4
BITMAP
0F80
3FC0
70E0
6030
E030
C000
C000
C000
C000
C000
E030
6030
70E0
3FE0
0F80
0200
0380
0180
0700
ENDCHAR
STARTCHAR Egrave
ENCODING 200
SWIDTH 666 0
DWIDTH 13 0
BBX 10 19 1 0
BITMAP
1800
0C00
0600
0000
FFC0
FFC0
C000
C000
C000
C000
FF80
FF80
C000
C000
C000
C000
C000
FFC0
FFC0
ENDCHAR
STARTCHAR Eacute
ENCODING 201
SWIDTH 666 0
DWIDTH 13 0
BBX 10 19 1 0
BITMAP
0600
0C00
1800
0000
FFC0
FFC0
C000
C000
C000
C000
FF80
FF80
C000
C000
C000
C000
C000
FFC0
FFC0
ENDCHAR
STARTCHAR Ecircumflex
ENCODING 202
SWIDTH 666 0
DWIDTH 13 0
BBX 10 19 1 0
BITMAP
0E00
0A00
1B80
0000
FFC0
FFC0
C000
C000
C000
C000
FF80
FF80
C000
C000
C000
C000
C000
FFC0
FFC0
ENDCHAR
STARTCHAR Edieresis
ENCODING 203
SWIDTH 666 0
DWIDTH 13 0
BBX 10 18 1 0
BITMAP
1980
1980
0000
FFC0
FFC0
C000
C000
C000
C000
FF80
FF80
C000
C000
C000
C000
C000
FFC0
FFC0
ENDCHAR
STARTCHAR Igrave
ENCODING 204
SWIDTH 277 0
DWIDTH 5 0
BBX 4 19 -1 0
BITMAP
E0
30
30
00
30
30
30
30
30
30
30
30
30
30
30
30
30
30
30
ENDCHAR
STARTCHAR Iacute
ENCODING 205
SWIDTH 277 0
DWIDTH 5 0
BBX 4 19 0 0
BITMAP
30
60
C0
00
60
60
60
60
60
60
60
60
60
60
60
60
60
60
60
ENDCHAR
STARTCHAR Icircumflex
ENCODING 206
SWIDTH 277 0
DWIDTH 5 0
BBX 6 19 -1 0
BITMAP
38
68
EC
00
30
30
30
30
30
30
30
30
30
30
30
30
30
30
30
ENDCHAR
STARTCHAR Idieresis
ENCODING 207
SWIDTH 277 0
DWIDTH 5 0
BBX 6 18 -1 0
BITMAP
CC
CC
00
30
30
30
30
30
30
30
30
30
30
30
30
30
30
30
ENDCHAR
STARTCHAR Eth
ENCODING 208
SWIDTH 722 0
DWIDTH 14 0
BBX 12 15 0 0
BITMAP
7F00
7FC0
60E0
6060
6030
6030
FC30
FC30
6030
6030
6030
6060
60E0
7FC0
7F00
ENDCHAR
STARTCHAR Ntilde
ENCODING 209
SWIDTH 722 0
DWIDTH 14 0
BBX 11 18 1 0
BITMAP
1C80
2700
0000
C060
E060
F060
F060
D860
D860
CC60
CE60
C660
C360
C360
C1E0
C1E0
C0E0
C060
ENDCHAR
STARTCHAR Ograve
ENCODING 210
SWIDTH 777 0
DWIDTH 16 0
BBX 13 19 1 0
BITMAP
0600
0300
0180
0000
0F80
3FE0
7070
6030
E038
C018
C018
C018
C018
C018
E038
6030
7070
3FE0
0F80
ENDCHAR
STARTCHAR Oacute
ENCODING 211
SWIDTH 777 0
DWIDTH 16 0
BBX 13 19 1 0
BITMAP
0180
0300
0600
0000
0F80
3FE0
7070
6030
E038
C018
C018
C018
C018
C018
E038
6030
7070
3FE0
0F80
ENDCHAR
STARTCHAR Ocircumflex
ENCODING 212
SWIDTH 777 0
DWIDTH 16 0
BBX 13 19 1 0
BITMAP
0700
0D00
1D80
0000
0F80
3FE0
7070
6030
E038
C018
C018
C018
C018
C018
E038
6030
7070
3FE0
0F80
ENDCHAR
STARTCHAR Otilde
ENCODING 213
SWIDTH 777 0
DWIDTH 16 0
BBX 13 18 1 0
BITMAP
0E40
19C0
0000
0F80
3FE0
7070
6030
E038
C018
C018
C018
C018
C018
E038
6030
7070
3FE0
0F80
ENDCHAR
STARTCHAR Odieresis
ENCODING 214
SWIDTH 777 0
DWIDTH 16 0
BBX 13 18 1 0
BITMAP
1980
1980
0000
0F80
3FE0
7070
6030
E038
C018
C018
C018
C018
C018
E038
6030
7070
3FE0
0F80
ENDCHAR
STARTCHAR multiply
ENCODING 215
SWIDTH 583 0
DWIDTH 12 0
BBX 9 9 1 3
BITMAP
4100
E380
7700
3E00
1C00
3E00
7700
E380
4100
ENDCHAR
STARTCHAR Oslash
ENCODING 216
SWIDTH 777 0
DWIDTH 16 0
BBX 13 15 1 0
BITMAP
0F88
3FF0
70F0
6030
E078
C098
C118
C218
C418
C818
F038
6030
7870
7FE0
8F80
ENDCHAR
STARTCHAR Ugrave
ENCODING 217
SWIDTH 722 0
DWIDTH 14 0
BBX 11 19 1 0
BITMAP
1C00
0C00
0600
0000
C060
C060
C060
C060
C060
C060
C060
C060
C060
C060
C060
C060
60C0
7FC0
1F00
ENDCHAR
STARTCHAR Uacute
ENCODING 218
SWIDTH 722 0
DWIDTH 14 0
BBX 11 19 1 0
BITMAP
0380
0300
0600
0000
C060
C060
C060
C060
C060
C060
C060
C060
C060
C060
C060
C060
60C0
7FC0
1F00
ENDCHAR
STARTCHAR Ucircumflex
ENCODING 219
SWIDTH 722 0
DWIDTH 14 0
BBX 11 19 1 0
BITMAP
0600
0F00
1980
0000
C060
C060
C060
C060
C060
C060
C060
C060
C060
C060
C060
C060
60C0
7FC0
1F00
ENDCHAR
STARTCHAR Udieresis
ENCODING 220
SWIDTH 722 0
DWIDTH 14 0
BBX 11 18 1 0
BITMAP
3180
3180
0000
C060
C060
C060
C060
C060
C060
C060
C060
C060
C060
C060
C060
60C0
7FC0
1F00
ENDCHAR
STARTCHAR Yacute
ENCODING 221
SWIDTH 666 0
DWIDTH 13 0
BBX 12 19 0 0
BITMAP
0180
0300
0600
0000
C030
E070
6060
30C0
30C0
1980
0F00
0F00
0600
0600
0600
0600
0600
0600
0600
ENDCHAR
STARTCHAR Thorn
ENCODING 222
SWIDTH 666 0
DWIDTH 13 0
BBX 10 15 1 0
BITMAP
C000
C000
C000
FF00
FF80
C1C0
C0C0
C0C0
C0C0
C1C0
FF80
FF00
C000
C000
C000
ENDCHAR
STARTCHAR germandbls
ENCODING 223
SWIDTH 610 0
DWIDTH 12 0
BBX 10 15 1 0
BITMAP
3E00
7F00
E300
C300
C300
C600
C600
C600
C700
C380
C1C0
C0C0
D8C0
DF80
CF00
ENDCHAR
STARTCHAR agrave
ENCODING 224
SWIDTH 556 0
DWIDTH 11 0
BBX 9 15 1 0
BITMAP
3800
1C00
0C00
0000
3E00
7F00
C180
0180
3F80
7F80
E180
C180
C380
FF80
7D80
ENDCHAR
STARTCHAR aacute
ENCODING 225
SWIDTH 556 0
DWIDTH 11 0
BBX 9 15 1 0
BITMAP
0700
0600
0C00
0000
3E00
7F00
C180
0180
3F80
7F80
E180
C180
C380
FF80
7D80
ENDCHAR
STARTCHAR acircumflex
ENCODING 226
SWIDTH 556 0
DWIDTH 11 0
BBX 9 15 1 0
BITMAP
0C00
1E00
3300
0000
3E00
7F00
C180
0180
3F80
7F80
E180
C180
C380
FF80
7D80
ENDCHAR
STARTCHAR atilde
ENCODING 227
SWIDTH 556 0
DWIDTH 11 0
BBX 9 14 1 0
BITMAP
3900
4F00
0000
3E00
7F00
C180
0180
3F80
7F80
E180
C180
C380
FF80
7D80
ENDCHAR
STARTCHAR adieresis
ENCODING 228
SWIDTH 556 0
DWIDTH 11 0
BBX 9 14 1 0
BITMAP
3300
3300
0000
3E00
7F00
C180
0180
3F80
7F80
E180
C180
C380
FF80
7D80
ENDCHAR
STARTCHAR aring
ENCODING 229
SWIDTH 556 0
DWIDTH 11 0
BBX 9 16 1 0
BITMAP
0E00
1200
1200
0E00
0000
3E00
7F00
C180
0180
3F80
7F80
E180
C180
C380
FF80
7D80
ENDCHAR
STARTCHAR ae
ENCODING 230
SWIDTH 889 0
DWIDTH 17 0
BBX 15 11 1 0
BITMAP
3CF8
FFFC
C38C
0306
3FFE
7FFE
E300
C300
C786
FFFC
78F8
ENDCHAR
STARTCHAR ccedilla
ENCODING 231
SWIDTH 500 0
DWIDTH 10 0
BBX 9 15 1 -4
BITMAP
3E00
7F00
E180
C000
C000
C000
C000
C000
E180
7F00
3E00
0800
0E00
0600
1C00
ENDCHAR
STARTCHAR egrave
ENCODING 232
SWIDTH 556 0
DWIDTH 11 0
BBX 9 15 1 0
BITMAP
3800
1C00
0C00
0000
3E00
7F00
E380
C180
FF80
FF80
C000
C000
E180
7F00
3E00
ENDCHAR
STARTCHAR eacute
ENCODING 233
SWIDTH 556 0
DWIDTH 11 0
BBX 9 15 1 0
BITMAP
0E00
0C00
1800
0000
3E00
7F00
E380
C180
FF80
FF80
C000
C000
E180
7F00
3E00
ENDCHAR
STARTCHAR ecircumflex
ENCODING 234
SWIDTH 556 0
DWIDTH 11 0
BBX 9 15 1 0
BITMAP
1800
3C00
6600
0000
3E00
7F00
E380
C180
FF80
FF80
C000
C000
E180
7F00
3E00
ENDCHAR
STARTCHAR edieresis
ENCODING 235
SWIDTH 556 0
DWIDTH 11 0
BBX 9 14 1 0
BITMAP
C600
C600
0000
3E00
7F00
E380
C180
FF80
FF80
C000
C000
E180
7F00
3E00
ENDCHAR
STARTCHAR igrave
ENCODING 236
SWIDTH 228 0
DWIDTH 4 0
BBX 4 15 -1 0
BITMAP
E0
60
30
00
30
30
30
30
30
30
30
30
30
30
30
ENDCHAR
STARTCHAR iacute
ENCODING 237
SWIDTH 228 0
DWIDTH 4 0
BBX 4 15 1 0
BITMAP
70
60
C0
00
C0
C0
C0
C0
C0
C0
C0
C0
C0
C0
C0
ENDCHAR
STARTCHAR icircumflex
ENCODING 238
SWIDTH 228 0
DWIDTH 4 0
BBX 6 15 -1 0
BITMAP
30
78
CC
00
30
30
30
30
30
30
30
30
30
30
30
ENDCHAR
STARTCHAR idieresis
ENCODING 239
SWIDTH 228 0
DWIDTH 4 0
BBX 6 14 -1 0
BITMAP
CC
CC
00
30
30
30
30
30
30
30
30
30
30
30
ENDCHAR
STARTCHAR eth
ENCODING 240
SWIDTH 556 0
DWIDTH 11 0
BBX 9 15 1 0
BITMAP
3B00
0C00
3600
0300
3F00
7F00
6380
C180
C180
C180
C180
C180
6300
7F00
3E00
ENDCHAR
STARTCHAR ntilde
ENCODING 241
SWIDTH 556 0
DWIDTH 11 0
BBX 9 14 1 0
BITMAP
3900
4F00
0000
DE00
FF00
E380
C180
C180
C180
C180
C180
C180
C180
C180
ENDCHAR
STARTCHAR ograve
ENCODING 242
SWIDTH 556 0
DWIDTH 11 0
BBX 9 15 1 0
BITMAP
3800
1C00
0C00
0000
3E00
7F00
E380
C180
C180
C180
C180
C180
E380
7F00
3E00
ENDCHAR
STARTCHAR oacute
ENCODING 243
SWIDTH 556 0
DWIDTH 11 0
BBX 9 15 1 0
BITMAP
0E00
0C00
1800
0000
3E00
7F00
E380
C180
C180
C180
C180
C180
E380
7F00
3E00
ENDCHAR
STARTCHAR ocircumflex
ENCODING 244
SWIDTH 556 0
DWIDTH 11 0
BBX 9 15 1 0
BITMAP
0C00
1E00
3300
0000
3E00
7F00
E380
C180
C180
C180
C180
C180
E380
7F00
3E00
ENDCHAR
STARTCHAR otilde
ENCODING 245
SWIDTH 556 0
DWIDTH 11 0
BBX 9 14 1 0
BITMAP
3900
4F00
0000
3E00
7F00
E380
C180
C180
C180
C180
C180
E380
7F00
3E00
ENDCHAR
STARTCHAR odieresis
ENCODING 246
SWIDTH 556 0
DWIDTH 11 0
BBX 9 14 1 0
BITMAP
C600
C600
0000
3E00
7F00
E380
C180
C180
C180
C180
C180
E380
7F00
3E00
ENDCHAR
STARTCHAR divide
ENCODING 247
SWIDTH 583 0
DWIDTH 12 0
BBX 10 8 1 3
BITMAP
0C00
0C00
0000
FFC0
FFC0
0000
0C00
0C00
ENDCHAR
STARTCHAR oslash
ENCODING 248
SWIDTH 556 0
DWIDTH 11 0
BBX 9 11 1 0
BITMAP
3F80
7F00
6300
C780
C580
C980
D180
F180
6300
7F00
FE00
ENDCHAR
STARTCHAR ugrave
ENCODING 249
SWIDTH 556 0
DWIDTH 11 0
BBX 9 15 1 0
BITMAP
3800
1C00
0C00
0000
C180
C180
C180
C180
C180
C180
C180
C180
E380
7F80
3D80
ENDCHAR
STARTCHAR uacute
ENCODING 250
SWIDTH 556 0
DWIDTH 11 0
BBX 9 15 1 0
BITMAP
0E00
0C00
1800
0000
C180
C180
C180
C180
C180
C180
C180
C180
E380
7F80
3D80
ENDCHAR
STARTCHAR ucircumflex
ENCODING 251
SWIDTH 556 0
DWIDTH 11 0
BBX 9 15 1 0
BITMAP
0C00
1E00
3300
0000
C180
C180
C180
C180
C180
C180
C180
C180
E380
7F80
3D80
ENDCHAR
STARTCHAR udieresis
ENCODING 252
SWIDTH 556 0
DWIDTH 11 0
BBX 9 14 1 0
BITMAP
C600
C600
0000
C180
C180
C180
C180
C180
C180
C180
C180
E380
7F80
3D80
ENDCHAR
STARTCHAR yacute
ENCODING 253
SWIDTH 500 0
DWIDTH 10 0
BBX 10 20 0 -5
BITMAP
0700
0C00
0C00
0000
C0C0
C0C0
6180
6180
6180
3300
3300
1E00
1E00
0C00
0C00
0C00
0800
1800
7000
7000
ENDCHAR
STARTCHAR thorn
ENCODING 254
SWIDTH 556 0
DWIDTH 11 0
BBX 9 20 1 -5
BITMAP
C000
C000
C000
C000
DE00
FF00
E380
C180
C180
C180
C180
C180
E380
FF00
DE00
C000
C000
C000
C000
C000
ENDCHAR
STARTCHAR ydieresis
ENCODING 255
SWIDTH 500 0
DWIDTH 10 0
BBX 10 19 0 -5
BITMAP
1980
1980
0000
C0C0
C0C0
6180
6180
6180
3300
3300
1E00
1E00
0C00
0C00
0C00
0800
1800
7000
7000
ENDCHAR
STARTCHAR Amacron
ENCODING 256
SWIDTH 666 0
DWIDTH 14 0
BBX 13 19 0 0
BITMAP
1F80
1F80
0000
0000
0700
0700
0D80
0D80
0D80
18C0
18C0
18C0
3060
3FE0
7FF0
6030
6030
C018
C018
ENDCHAR
STARTCHAR amacron
ENCODING 257
SWIDTH 556 0
DWIDTH 11 0
BBX 9 14 1 0
BITMAP
3F00
3F00
0000
3E00
7F00
C180
0180
3F80
7F80
E180
C180
C380
FF80
7D80
ENDCHAR
STARTCHAR Abreve
ENCODING 258
SWIDTH 666 0
DWIDTH 14 0
BBX 13 19 0 0
BITMAP
1080
0880
0700
0000
0700
0700
0D80
0D80
0D80
18C0
18C0
18C0
3060
3FE0
7FF0
6030
6030
C018
C018
ENDCHAR
STARTCHAR abreve
ENCODING 259
SWIDTH 556 0
DWIDTH 11 0
BBX 9 15 1 0
BITMAP
2100
1100
1E00
0000
3E00
7F00
C180
0180
3F80
7F80
E180
C180
C380
FF80
7D80
ENDCHAR
STARTCHAR Aogonek
ENCODING 260
SWIDTH 666 0
DWIDTH 14 0
BBX 14 20 0 -5
BITMAP
0700
0700
0D80
0D80
0D80
18C0
18C0
18C0
3060
3FE0
7FF0
6030
6030
C018
C018
000C
0018
0038
0018
001C
ENDCHAR
STARTCHAR aogonek
ENCODING 261
SWIDTH 556 0
DWIDTH 11 0
BBX 9 16 1 -5
BITMAP
3E00
7F00
C180
0180
3F80
7F80
E180
C180
C380
FF80
7D80
0180
0300
0300
0300
0180
ENDCHAR
STARTCHAR Cacute
ENCODING 262
SWIDTH 722 0
DWIDTH 15 0
BBX 12 19 1 0
BITMAP
0180
0300
0600
0000
0F80
3FC0
70E0
6030
E030
C000
C000
C000
C000
C000
E030
6030
70E0
3FC0
0F80
ENDCHAR
STARTCHAR cacute
ENCODING 263
SWIDTH 500 0
DWIDTH 10 0
BBX 9 15 1 0
BITMAP
0700
0600
0C00
0000
3E00
7F00
E180
C000
C000
C000
C000
C000
E180
7F00
3E00
ENDCHAR
STARTCHAR Ccircumflex
ENCODING 264
SWIDTH 722 0
DWIDTH 15 0
BBX 12 19 1 0
BITMAP
0600
0F00
1980
0000
0F80
3FC0
70E0
6030
E030
C000
C000
C000
C000
C000
E030
6030
70E0
3FC0
0F80
ENDCHAR
STARTCHAR ccircumflex
ENCODING 265
SWIDTH 500 0
DWIDTH 10 0
BBX 9 15 1 0
BITMAP
0C00
1E00
3300
0000
3E00
7F00
E180
C000
C000
C000
C000
C000
E180
7F00
3E00
ENDCHAR
STARTCHAR Cdotaccent
ENCODING 266
SWIDTH 722 0
DWIDTH 15 0
BBX 12 18 1 0
BITMAP
0600
0600
0000
0F80
3FC0
70E0
6030
E030
C000
C000
C000
C000
C000
E030
6030
70E0
3FC0
0F80
ENDCHAR
STARTCHAR cdotaccent
ENCODING 267
SWIDTH 500 0
DWIDTH 10 0
BBX 9 14 1 0
BITMAP
0C00
0C00
0000
3E00
7F00
E180
C000
C000
C000
C000
C000
E180
7F00
3E00
ENDCHAR
STARTCHAR Ccaron
ENCODING 268
SWIDTH 722 0
DWIDTH 15 0
BBX 12 19 1 0
BITMAP
1980
0F00
0600
0000
0F80
3FC0
70E0
6030
E030
C000
C000
C000
C000
C000
E030
6030
70E0
3FC0
0F80
ENDCHAR
STARTCHAR ccaron
ENCODING 269
SWIDTH 500 0
DWIDTH 10 0
BBX 9 15 1 0
BITMAP
3300
1E00
0C00
0000
3E00
7F00
E180
C000
C000
C000
C000
C000
E180
7F00
3E00
ENDCHAR
STARTCHAR Dcaron
ENCODING 270
SWIDTH 722 0
DWIDTH 14 0
BBX 11 19 1 0
BITMAP
3300
1E00
1C00
0000
FE00
FF80
C1C0
C0C0
C060
C060
C060
C060
C060
C060
C060
C0C0
C1C0
FF80
FE00
ENDCHAR
STARTCHAR dcaron
ENCODING 271
SWIDTH 634 0
DWIDTH 13 0
BBX 12 15 1 0
BITMAP
01B0
01B0
0190
0190
3DA0
7F80
E380
C180
C180
C180
C180
C180
E380
7F80
3D80
ENDCHAR
STARTCHAR Dcroat
ENCODING 272
SWIDTH 722 0
DWIDTH 14 0
BBX 12 15 0 0
BITMAP
7F00
7FC0
60E0
6060
6030
6030
FC30
FC30
6030
6030
6030
6060
60E0
7FC0
7F00
ENDCHAR
STARTCHAR dcroat
ENCODING 273
SWIDTH 556 0
DWIDTH 11 0
BBX 10 15 1 0
BITMAP
0180
07C0
07C0
0180
3D80
7F80
E380
C180
C180
C180
C180
C180
E380
7F80
3D80
ENDCHAR
STARTCHAR Emacron
ENCODING 274
SWIDTH 666 0
DWIDTH 13 0
BBX 10 19 1 0
BITMAP
3F00
3F00
0000
0000
FFC0
FFC0
C000
C000
C000
C000
FF80
FF80
C000
C000
C000
C000
C000
FFC0
FFC0
ENDCHAR
STARTCHAR emacron
ENCODING 275
SWIDTH 556 0
DWIDTH 11 0
BBX 9 15 1 0
BITMAP
7E00
7E00
0000
0000
3E00
7F00
E380
C180
FF80
FF80
C000
C000
E180
7F00
3E00
ENDCHAR
STARTCHAR Ebreve
ENCODING 276
SWIDTH 666 0
DWIDTH 13 0
BBX 10 19 1 0
BITMAP
1180
1100
0E00
0000
FFC0
FFC0
C000
C000
C000
C000
FF80
FF80
C000
C000
C000
C000
C000
FFC0
FFC0
ENDCHAR
STARTCHAR ebreve
ENCODING 277
SWIDTH 556 0
DWIDTH 11 0
BBX 9 15 1 0
BITMAP
4200
2200
3C00
0000
3E00
7F00
E380
C180
FF80
FF80
C000
C000
E180
7F00
3E00
ENDCHAR
STARTCHAR Edotaccent
ENCODING 278
SWIDTH 666 0
DWIDTH 13 0
BBX 10 18 1 0
BITMAP
0C00
0C00
0000
FFC0
FFC0
C000
C000
C000
C000
FF80
FF80
C000
C000
C000
C000
C000
FFC0
FFC0
ENDCHAR
STARTCHAR edotaccent
ENCODING 279
SWIDTH 556 0
DWIDTH 11 0
BBX 9 14 1 0
BITMAP
1800
1800
0000
3E00
7F00
E380
C180
FF80
FF80
C000
C000
E180
7F00
3E00
ENDCHAR
STARTCHAR Eogonek
ENCODING 280
SWIDTH 666 0
DWIDTH 13 0
BBX 10 20 1 -5
BITMAP
FFC0
FFC0
C000
C000
C000
C000
FF80
FF80
C000
C000
C000
C000
C000
FFC0
FFC0
00C0
00C0
0180
0180
00C0
ENDCHAR
STARTCHAR eogonek
ENCODING 281
SWIDTH 556 0
DWIDTH 11 0
BBX 9 15 1 -4
BITMAP
3E00
7F00
E380
C180
FF80
FF80
C000
C000
E180
7F00
3E00
0600
0C00
0C00
0700
ENDCHAR
STARTCHAR Ecaron
ENCODING 282
SWIDTH 666 0
DWIDTH 13 0
BBX 10 19 1 0
BITMAP
3B00
0A00
0E00
0000
FFC0
FFC0
C000
C000
C000
C000
FF80
FF80
C000
C000
C000
C000
C000
FFC0
FFC0
ENDCHAR
STARTCHAR ecaron
ENCODING 283
SWIDTH 556 0
DWIDTH 11 0
BBX 9 15 1 0
BITMAP
6600
3C00
1800
0000
3E00
7F00
E380
C180
FF80
FF80
C000
C000
E180
7F00
3E00
ENDCHAR
STARTCHAR Gcircumflex
ENCODING 284
SWIDTH 777 0
DWIDTH 15 0
BBX 12 19 1 0
BITMAP
0E00
0A00
1B80
0000
0F80
3FC0
70E0
6030
E030
C000
C000
C3F0
C3F0
C030
E030
6030
70F0
3FF0
0FB0
ENDCHAR
STARTCHAR gcircumflex
ENCODING 285
SWIDTH 556 0
DWIDTH 11 0
BBX 9 20 1 -5
BITMAP
0C00
1E00
3300
0000
3D80
7F80
E380
C180
C180
C180
C180
C180
E380
7F80
3D80
0180
0180
C300
FF00
7E00
ENDCHAR
STARTCHAR Gbreve
ENCODING 286
SWIDTH 777 0
DWIDTH 15 0
BBX 12 19 1 0
BITMAP
1080
0980
0F00
0000
0F80
3FC0
70E0
6030
E030
C000
C000
C3F0
C3F0
C030
E030
6030
70F0
3FF0
0FB0
ENDCHAR
STARTCHAR gbreve
ENCODING 287
SWIDTH 556 0
DWIDTH 11 0
BBX 9 20 1 -5
BITMAP
2100
1100
1E00
0000
3D80
7F80
E380
C180
C180
C180
C180
C180
E380
7F80
3D80
0180
0180
C300
FF00
7E00
ENDCHAR
STARTCHAR Gdotaccent
ENCODING 288
SWIDTH 777 0
DWIDTH 15 0
BBX 12 18 1 0
BITMAP
0600
0600
0000
0F80
3FC0
70E0
6030
E030
C000
C000
C3F0
C3F0
C030
E030
6030
70F0
3FF0
0FB0
ENDCHAR
STARTCHAR gdotaccent
ENCODING 289
SWIDTH 556 0
DWIDTH 11 0
BBX 9 19 1 -5
BITMAP
0C00
0C00
0000
3D80
7F80
E380
C180
C180
C180
C180
C180
E380
7F80
3D80
0180
0180
C300
FF00
7E00
ENDCHAR
STARTCHAR uni0122
ENCODING 290
SWIDTH 777 0
DWIDTH 15 0
BBX 12 20 1 -5
BITMAP
0F80
3FC0
70E0
6030
E030
C000
C000
C3F0
C3F0
C030
E030
6030
70F0
3FF0
0FB0
0000
0300
0300
0100
0200
ENDCHAR
STARTCHAR uni0123
ENCODING 291
SWIDTH 556 0
DWIDTH 11 0
BBX 9 22 1 -5
BITMAP
0800
1000
1000
1800
1800
0000
3D80
7F80
E380
C180
C180
C180
C180
C180
E380
7F80
3D80
0180
0180
C300
FF00
7E00
ENDCHAR
STARTCHAR Hcircumflex
ENCODING 292
SWIDTH 722 0
DWIDTH 14 0
BBX 11 19 1 0
BITMAP
0600
0F00
1980
0000
C060
C060
C060
C060
C060
C060
FFE0
FFE0
C060
C060
C060
C060
C060
C060
C060
ENDCHAR
STARTCHAR hcircumflex
ENCODING 293
SWIDTH 556 0
DWIDTH 11 0
BBX 9 19 1 0
BITMAP
1C00
3400
7600
0000
C000
C000
C000
C000
DE00
FF00
E380
C180
C180
C180
C180
C180
C180
C180
C180
ENDCHAR
STARTCHAR Hbar
ENCODING 294
SWIDTH 722 0
DWIDTH 14 0
BBX 13 15 0 0
BITMAP
6030
6030
FFF8
FFF8
6030
6030
7FF0
7FF0
6030
6030
6030
6030
6030
6030
6030
ENDCHAR
STARTCHAR hbar
ENCODING 295
SWIDTH 556 0
DWIDTH 11 0
BBX 10 15 0 0
BITMAP
6000
FC00
FC00
6000
6F00
7F80
71C0
60C0
60C0
60C0
60C0
60C0
60C0
60C0
60C0
ENDCHAR
STARTCHAR Itilde
ENCODING 296
SWIDTH 277 0
DWIDTH 5 0
BBX 7 18 -2 0
BITMAP
72
CE
00
18
18
18
18
18
18
18
18
18
18
18
18
18
18
18
ENDCHAR
STARTCHAR itilde
ENCODING 297
SWIDTH 228 0
DWIDTH 4 0
BBX 7 14 -1 0
BITMAP
72
9C
00
30
30
30
30
30
30
30
30
30
30
30
ENDCHAR
STARTCHAR Imacron
ENCODING 298
SWIDTH 277 0
DWIDTH 5 0
BBX 6 19 -1 0
BITMAP
FC
FC
00
00
30
30
30
30
30
30
30
30
30
30
30
30
30
30
30
ENDCHAR
STARTCHAR imacron
ENCODING 299
SWIDTH 228 0
DWIDTH 4 0
BBX 6 14 -1 0
BITMAP
FC
FC
00
30
30
30
30
30
30
30
30
30
30
30
ENDCHAR
STARTCHAR Ibreve
ENCODING 300
SWIDTH 277 0
DWIDTH 5 0
BBX 6 19 -1 0
BITMAP
C4
44
38
00
30
30
30
30
30
30
30
30
30
30
30
30
30
30
30
ENDCHAR
STARTCHAR ibreve
ENCODING 301
SWIDTH 228 0
DWIDTH 4 0
BBX 6 15 -1 0
BITMAP
84
CC
78
00
30
30
30
30
30
30
30
30
30
30
30
ENDCHAR
STARTCHAR Iogonek
ENCODING 302
SWIDTH 277 0
DWIDTH 5 0
BBX 4 20 0 -5
BITMAP
60
60
60
60
60
60
60
60
60
60
60
60
60
60
60
60
C0
C0
C0
70
ENDCHAR
STARTCHAR iogonek
ENCODING 303
SWIDTH 228 0
DWIDTH 4 0
BBX 4 20 0 -5
BITMAP
60
60
00
00
60
60
60
60
60
60
60
60
60
60
60
60
C0
C0
C0
70
ENDCHAR
STARTCHAR Idotaccent
ENCODING 304
SWIDTH 277 0
DWIDTH 5 0
BBX 2 18 1 0
BITMAP
C0
C0
00
C0
C0
C0
C0
C0
C0
C0
C0
C0
C0
C0
C0
C0
C0
C0
ENDCHAR
STARTCHAR dotlessi
ENCODING 305
SWIDTH 228 0
DWIDTH 4 0
BBX 2 11 1 0
BITMAP
C0
C0
C0
C0
C0
C0
C0
C0
C0
C0
C0
ENDCHAR
STARTCHAR IJ
ENCODING 306
SWIDTH 777 0
DWIDTH 16 0
BBX 13 15 1 0
BITMAP
C018
C018
C018
C018
C018
C018
C018
C018
C018
C018
C018
C618
C638
C3F0
C1E0
ENDCHAR
STARTCHAR ij
ENCODING 307
SWIDTH 456 0
DWIDTH 9 0
BBX 7 20 1 -5
BITMAP
C6
C6
00
00
C6
C6
C6
C6
C6
C6
C6
C6
C6
C6
C6
06
06
06
0E
0C
ENDCHAR
STARTCHAR Jcircumflex
ENCODING 308
SWIDTH 500 0
DWIDTH 11 0
BBX 10 19 1 0
BITMAP
0300
0780
0CC0
0000
0300
0300
0300
0300
0300
0300
0300
0300
0300
0300
0300
C300
C700
7E00
3C00
ENDCHAR
STARTCHAR jcircumflex
ENCODING 309
SWIDTH 228 0
DWIDTH 4 0
BBX 6 20 -1 -5
BITMAP
30
78
CC
00
30
30
30
30
30
30
30
30
30
30
30
30
30
30
70
60
ENDCHAR
STARTCHAR uni0136
ENCODING 310
SWIDTH 666 0
DWIDTH 14 0
BBX 12 20 1 -5
BITMAP
C060
C0C0
C180
C300
C600
CC00
DC00
FC00
E600
C300
C180
C180
C0C0
C060
C030
0000
0300
0300
0100
0200
ENDCHAR
STARTCHAR uni0137
ENCODING 311
SWIDTH 500 0
DWIDTH 10 0
BBX 9 20 1 -5
BITMAP
C000
C000
C000
C000
C300
C600
CC00
D800
F000
F800
CC00
C600
C600
C300
C180
0000
0C00
0C00
0400
0800
ENDCHAR
STARTCHAR kgreenlandic
ENCODING 312
SWIDTH 500 0
DWIDTH 10 0
BBX 9 11 1 0
BITMAP
C300
C600
CC00
D800
F000
F800
CC00
C600
C600
C300
C180
ENDCHAR
STARTCHAR Lacute
ENCODING 313
SWIDTH 556 0
DWIDTH 11 0
BBX 10 19 1 0
BITMAP
3800
3000
6000
0000
C000
C000
C000
C000
C000
C000
C000
C000
C000
C000
C000
C000
C000
FFC0
FFC0
ENDCHAR
STARTCHAR lacute
ENCODING 314
SWIDTH 228 0
DWIDTH 4 0
BBX 4 19 0 0
BITMAP
30
60
C0
00
60
60
60
60
60
60
60
60
60
60
60
60
60
60
60
ENDCHAR
STARTCHAR uni013B
ENCODING 315
SWIDTH 556 0
DWIDTH 11 0
BBX 10 20 1 -5
BITMAP
C000
C000
C000
C000
C000
C000
C000
C000
C000
C000
C000
C000
C000
FFC0
FFC0
0000
0600
0600
0200
0400
ENDCHAR
STARTCHAR uni013C
ENCODING 316
SWIDTH 228 0
DWIDTH 4 0
BBX 2 20 1 -5
BITMAP
C0
C0
C0
C0
C0
C0
C0
C0
C0
C0
C0
C0
C0
C0
C0
00
C0
C0
40
80
ENDCHAR
STARTCHAR Lcaron
ENCODING 317
SWIDTH 556 0
DWIDTH 11 0
BBX 10 15 1 0
BITMAP
C300
C300
C100
C100
C200
C000
C000
C000
C000
C000
C000
C000
C000
FFC0
FFC0
ENDCHAR
STARTCHAR lcaron
ENCODING 318
SWIDTH 291 0
DWIDTH 6 0
BBX 5 15 1 0
BITMAP
D8
D8
C8
C8
D0
C0
C0
C0
C0
C0
C0
C0
C0
C0
C0
ENDCHAR
STARTCHAR Ldot
ENCODING 319
SWIDTH 556 0
DWIDTH 11 0
BBX 10 15 1 0
BITMAP
C000
C000
C000
C000
C000
C000
C000
C300
C300
C000
C000
C000
C000
FFC0
FFC0
ENDCHAR
STARTCHAR ldot
ENCODING 320
SWIDTH 368 0
DWIDTH 7 0
BBX 6 15 0 0
BITMAP
C0
C0
C0
C0
C0
C0
C0
CC
CC
C0
C0
C0
C0
C0
C0
ENDCHAR
STARTCHAR Lslash
ENCODING 321
SWIDTH 556 0
DWIDTH 11 0
BBX 12 15 -1 0
BITMAP
3000
3000
3000
3200
3400
3800
3000
3000
7000
B000
3000
3000
3000
3FF0
3FF0
ENDCHAR
STARTCHAR lslash
ENCODING 322
SWIDTH 228 0
DWIDTH 4 0
BBX 4 15 0 0
BITMAP
60
60
60
60
60
70
60
60
60
E0
60
60
60
60
60
ENDCHAR
STARTCHAR Nacute
ENCODING 323
SWIDTH 722 0
DWIDTH 14 0
BBX 11 19 1 0
BITMAP
0300
0600
0C00
0000
C060
E060
F060
F060
D860
D860
CC60
CE60
C660
C360
C360
C1E0
C1E0
C0E0
C060
ENDCHAR
STARTCHAR nacute
ENCODING 324
SWIDTH 556 0
DWIDTH 11 0
BBX 9 15 1 0
BITMAP
0E00
0C00
1800
0000
DE00
FF00
E380
C180
C180
C180
C180
C180
C180
C180
C180
ENDCHAR
STARTCHAR uni0145
ENCODING 325
SWIDTH 722 0
DWIDTH 14 0
BBX 11 20 1 -5
BITMAP
C060
E060
F060
F060
D860
D860
CC60
CE60
C660
C360
C360
C1E0
C1E0
C0E0
C060
0000
0600
0600
0200
0600
ENDCHAR
STARTCHAR uni0146
ENCODING 326
SWIDTH 556 0
DWIDTH 11 0
BBX 9 16 1 -5
BITMAP
DE00
FF00
E380
C180
C180
C180
C180
C180
C180
C180
C180
0000
1800
1800
0800
1800
ENDCHAR
STARTCHAR Ncaron
ENCODING 327
SWIDTH 722 0
DWIDTH 14 0
BBX 11 19 1 0
BITMAP
1B80
0B00
0E00
0000
C060
E060
F060
F060
D860
D860
CC60
CE60
C660
C360
C360
C1E0
C1E0
C0E0
C060
ENDCHAR
STARTCHAR ncaron
ENCODING 328
SWIDTH 556 0
DWIDTH 11 0
BBX 9 15 1 0
BITMAP
3300
1E00
0C00
0000
DE00
FF00
E380
C180
C180
C180
C180
C180
C180
C180
C180
ENDCHAR
STARTCHAR napostrophe
ENCODING 329
SWIDTH 675 0
DWIDTH 13 0
BBX 12 15 0 0
BITMAP
C000
C000
4000
4000
9BC0
1FE0
1C70
1830
1830
1830
1830
1830
1830
1830
1830
ENDCHAR
STARTCHAR Eng
ENCODING 330
SWIDTH 722 0
DWIDTH 14 0
BBX 11 19 1 -4
BITMAP
C060
E060
F060
F060
D860
D860
CC60
CE60
C660
C360
C360
C1E0
C1E0
C0E0
C060
0060
0060
01E0
01C0
ENDCHAR
STARTCHAR eng
ENCODING 331
SWIDTH 556 0
DWIDTH 11 0
BBX 9 15 1 -4
BITMAP
DE00
FF00
E380
C180
C180
C180
C180
C180
C180
C180
C180
0180
0180
0780
0700
ENDCHAR
STARTCHAR Omacron
ENCODING 332
SWIDTH 777 0
DWIDTH 16 0
BBX 13 18 1 0
BITMAP
1F80
1F80
0000
0F80
3FE0
7070
6030
E038
C018
C018
C018
C018
C018
E038
6030
7070
3FE0
0F80
ENDCHAR
STARTCHAR omacron
ENCODING 333
SWIDTH 556 0
DWIDTH 11 0
BBX 9 14 1 0
BITMAP
3F00
3F00
0000
3E00
7F00
E380
C180
C180
C180
C180
C180
E380
7F00
3E00
ENDCHAR
STARTCHAR Obreve
ENCODING 334
SWIDTH 777 0
DWIDTH 16 0
BBX 13 19 1 0
BITMAP
1880
0880
0700
0000
0F80
3FE0
7070
6030
E038
C018
C018
C018
C018
C018
E038
6030
7070
3FE0
0F80
ENDCHAR
STARTCHAR obreve
ENCODING 335
SWIDTH 556 0
DWIDTH 11 0
BBX 9 15 1 0
BITMAP
2100
1100
1E00
0000
3E00
7F00
E380
C180
C180
C180
C180
C180
E380
7F00
3E00
ENDCHAR
STARTCHAR Ohungarumlaut
ENCODING 336
SWIDTH 777 0
DWIDTH 16 0
BBX 13 19 1 0
BITMAP
07E0
06C0
0D80
0000
0F80
3FE0
7070
6030
E038
C018
C018
C018
C018
C018
E038
6030
7070
3FE0
0F80
ENDCHAR
STARTCHAR ohungarumlaut
ENCODING 337
SWIDTH 556 0
DWIDTH 11 0
BBX 9 15 1 0
BITMAP
1F80
1B00
3600
0000
3E00
7F00
E380
C180
C180
C180
C180
C180
E380
7F00
3E00
ENDCHAR
STARTCHAR OE
ENCODING 338
SWIDTH 1000 0
DWIDTH 20 0
BBX 17 15 1 0
BITMAP
1F7F80
3FFF80
71E000
60E000
C06000
C06000
C07F00
C07F00
C06000
C06000
C06000
60E000
71E000
3FFF80
1F7F80
ENDCHAR
STARTCHAR oe
ENCODING 339
SWIDTH 943 0
DWIDTH 19 0
BBX 17 11 1 0
BITMAP
1E3E00
7FFF00
61E380
C0C180
C0FF80
C0FF80
C0C000
C0C000
61E180
7FFF00
1E1E00
ENDCHAR
STARTCHAR Racute
ENCODING 340
SWIDTH 722 0
DWIDTH 13 0
BBX 11 19 1 0
BITMAP
0380
0700
0600
0000
FF80
FFC0
C0E0
C060
C060
C060
C0C0
FFC0
FF00
C380
C180
C0C0
C0C0
C0C0
C060
ENDCHAR
STARTCHAR racute
ENCODING 341
SWIDTH 333 0
DWIDTH 6 0
BBX 5 15 1 0
BITMAP
38
30
60
00
D8
F8
E0
C0
C0
C0
C0
C0
C0
C0
C0
ENDCHAR
STARTCHAR uni0156
ENCODING 342
SWIDTH 722 0
DWIDTH 13 0
BBX 11 20 1 -5
BITMAP
FF80
FFC0
C0E0
C060
C060
C060
C0C0
FFC0
FF00
C380
C180
C0C0
C0C0
C0C0
C060
0000
0600
0600
0200
0600
ENDCHAR
STARTCHAR uni0157
ENCODING 343
SWIDTH 333 0
DWIDTH 6 0
BBX 5 16 1 -5
BITMAP
D8
F8
E0
C0
C0
C0
C0
C0
C0
C0
C0
00
C0
C0
40
80
ENDCHAR
STARTCHAR Rcaron
ENCODING 344
SWIDTH 722 0
DWIDTH 13 0
BBX 11 19 1 0
BITMAP
3300
1E00
0C00
0000
FF80
FFC0
C0E0
C060
C060
C060
C0C0
FFC0
FF00
C380
C180
C0C0
C0C0
C0C0
C060
ENDCHAR
STARTCHAR rcaron
ENCODING 345
SWIDTH 333 0
DWIDTH 6 0
BBX 6 15 0 0
BITMAP
CC
78
30
00
6C
7C
70
60
60
60
60
60
60
60
60
ENDCHAR
STARTCHAR Sacute
ENCODING 346
SWIDTH 666 0
DWIDTH 14 0
BBX 11 19 1 0
BITMAP
0700
0C00
0C00
0000
1F00
7FC0
E0E0
C060
C000
E000
7E00
1F80
01C0
0060
C060
C060
70E0
7FC0
1F00
ENDCHAR
STARTCHAR sacute
ENCODING 347
SWIDTH 500 0
DWIDTH 10 0
BBX 8 15 1 0
BITMAP
0E
18
18
00
3C
FF
C3
C0
F8
3E
07
03
C3
FE
3C
ENDCHAR
STARTCHAR Scircumflex
ENCODING 348
SWIDTH 666 0
DWIDTH 14 0
BBX 11 19 1 0
BITMAP
0C00
1E00
3300
0000
1F00
7FC0
E0E0
C060
C000
E000
7E00
1F80
01C0
0060
C060
C060
70E0
7FC0
1F00
ENDCHAR
STARTCHAR scircumflex
ENCODING 349
SWIDTH 500 0
DWIDTH 10 0
BBX 8 15 1 0
BITMAP
1C
3C
76
00
3C
FF
C3
C0
F8
3E
07
03
C3
FE
3C
ENDCHAR
STARTCHAR Scedilla
ENCODING 350
SWIDTH 666 0
DWIDTH 14 0
BBX 11 19 1 -4
BITMAP
1F00
7FC0
E0E0
C060
C000
E000
7E00
1F80
03C0
0060
C060
C060
70E0
7FC0
1F00
0400
0700
0300
0E00
ENDCHAR
STARTCHAR scedilla
ENCODING 351
SWIDTH 500 0
DWIDTH 10 0
BBX 8 15 1 -4
BITMAP
3C
FF
C3
C0
F8
3E
07
03
C3
FE
7C
10
1C
0C
38
ENDCHAR
STARTCHAR Scaron
ENCODING 352
SWIDTH 666 0
DWIDTH 14 0
BBX 11 19 1 0
BITMAP
3300
1E00
0C00
0000
1F00
7FC0
E0E0
C060
C000
E000
7E00
1F80
01C0
0060
C060
C060
70E0
7FC0
1F00
ENDCHAR
STARTCHAR scaron
ENCODING 353
SWIDTH 500 0
DWIDTH 10 0
BBX 8 15 1 0
BITMAP
76
3C
1C
00
3C
FF
C3
C0
F8
3E
07
03
C3
FE
3C
ENDCHAR
STARTCHAR uni0162
ENCODING 354
SWIDTH 610 0
DWIDTH 13 0
BBX 12 19 0 -4
BITMAP
FFF0
FFF0
0600
0600
0600
0600
0600
0600
0600
0600
0600
0600
0600
0600
0600
0400
0700
0300
0E00
ENDCHAR
STARTCHAR uni0163
ENCODING 355
SWIDTH 277 0
DWIDTH 5 0
BBX 5 18 0 -4
BITMAP
60
60
60
F8
F8
60
60
60
60
60
60
60
78
38
20
38
18
70
ENDCHAR
STARTCHAR Tcaron
ENCODING 356
SWIDTH 610 0
DWIDTH 13 0
BBX 12 19 0 0
BITMAP
1980
0F00
0600
0000
FFF0
FFF0
0600
0600
0600
0600
0600
0600
0600
0600
0600
0600
0600
0600
0600
ENDCHAR
STARTCHAR tcaron
ENCODING 357
SWIDTH 351 0
DWIDTH 6 0
BBX 6 16 0 0
BITMAP
0C
0C
64
68
60
F8
F8
60
60
60
60
60
60
60
78
38
ENDCHAR
STARTCHAR Tbar
ENCODING 358
SWIDTH 610 0
DWIDTH 13 0
BBX 12 15 0 0
BITMAP
FFF0
FFF0
0600
0600
0600
0600
7FE0
7FE0
0600
0600
0600
0600
0600
0600
0600
ENDCHAR
STARTCHAR tbar
ENCODING 359
SWIDTH 277 0
DWIDTH 5 0
BBX 5 14 0 0
BITMAP
60
60
60
F8
F8
60
60
F8
F8
60
60
60
78
38
ENDCHAR
STARTCHAR Utilde
ENCODING 360
SWIDTH 722 0
DWIDTH 14 0
BBX 11 18 1 0
BITMAP
1C80
2700
0000
C060
C060
C060
C060
C060
C060
C060
C060
C060
C060
C060
C060
60C0
7FC0
1F00
ENDCHAR
STARTCHAR utilde
ENCODING 361
SWIDTH 556 0
DWIDTH 11 0
BBX 9 14 1 0
BITMAP
3900
4F00
0000
C180
C180
C180
C180
C180
C180
C180
C180
E380
7F80
3D80
ENDCHAR
STARTCHAR Umacron
ENCODING 362
SWIDTH 722 0
DWIDTH 14 0
BBX 11 18 1 0
BITMAP
1F80
1F80
0000
C060
C060
C060
C060
C060
C060
C060
C060
C060
C060
C060
C060
60C0
7FC0
1F00
ENDCHAR
STARTCHAR umacron
ENCODING 363
SWIDTH 556 0
DWIDTH 11 0
BBX 9 14 1 0
BITMAP
3F00
3F00
0000
C180
C180
C180
C180
C180
C180
C180
C180
E380
7F80
3D80
ENDCHAR
STARTCHAR Ubreve
ENCODING 364
SWIDTH 722 0
DWIDTH 14 0
BBX 11 19 1 0
BITMAP
1080
1980
0F00
0000
C060
C060
C060
C060
C060
C060
C060
C060
C060
C060
C060
C060
60C0
7FC0
1F00
ENDCHAR
STARTCHAR ubreve
ENCODING 365
SWIDTH 556 0
DWIDTH 11 0
BBX 9 15 1 0
BITMAP
2100
1100
0E00
0000
C180
C180
C180
C180
C180
C180
C180
C180
E380
7F80
3D80
ENDCHAR
STARTCHAR Uring
ENCODING 366
SWIDTH 722 0
DWIDTH 14 0
BBX 11 19 1 0
BITMAP
0600
0900
0900
0600
C060
C060
C060
C060
C060
C060
C060
C060
C060
C060
C060
C060
60C0
7FC0
1F00
ENDCHAR
STARTCHAR uring
ENCODING 367
SWIDTH 556 0
DWIDTH 11 0
BBX 9 16 1 0
BITMAP
0C00
1200
1200
0C00
0000
C180
C180
C180
C180
C180
C180
C180
C180
E380
7F80
3D80
ENDCHAR
STARTCHAR Uhungarumlaut
ENCODING 368
SWIDTH 722 0
DWIDTH 14 0
BBX 11 19 1 0
BITMAP
1DC0
1980
3300
0000
C060
C060
C060
C060
C060
C060
C060
C060
C060
C060
C060
C060
60C0
7FC0
1F00
ENDCHAR
STARTCHAR uhungarumlaut
ENCODING 369
SWIDTH 556 0
DWIDTH 11 0
BBX 9 15 1 0
BITMAP
0D80
1B00
3600
0000
C180
C180
C180
C180
C180
C180
C180
C180
E380
7F80
3D80
ENDCHAR
STARTCHAR Uogonek
ENCODING 370
SWIDTH 722 0
DWIDTH 14 0
BBX 11 20 1 -5
BITMAP
C060
C060
C060
C060
C060
C060
C060
C060
C060
C060
C060
C060
60C0
7FC0
1F00
0200
0600
0600
0600
0700
ENDCHAR
STARTCHAR uogonek
ENCODING 371
SWIDTH 556 0
DWIDTH 11 0
BBX 9 16 1 -5
BITMAP
C180
C180
C180
C180
C180
C180
C180
C180
E380
7F80
3D80
0180
0300
0300
0300
0180
ENDCHAR
STARTCHAR Wcircumflex
ENCODING 372
SWIDTH 943 0
DWIDTH 20 0
BBX 19 19 0 0
BITMAP
006000
00F000
019800
000000
C0E060
C0E060
60E0C0
61B0C0
61B0C0
61B0C0
331980
331980
331980
1B1B00
1E0F00
1E0F00
1E0F00
0C0600
0C0600
ENDCHAR
STARTCHAR wcircumflex
ENCODING 373
SWIDTH 722 0
DWIDTH 14 0
BBX 14 15 0 0
BITMAP
0300
0780
0CC0
0000
C30C
C30C
6798
6798
6798
34B0
3CF0
3CF0
3870
1860
1860
ENDCHAR
STARTCHAR Ycircumflex
ENCODING 374
SWIDTH 666 0
DWIDTH 13 0
BBX 12 19 0 0
BITMAP
0700
0D00
1D80
0000
C030
E070
6060
30C0
30C0
1980
0F00
0F00
0600
0600
0600
0600
0600
0600
0600
ENDCHAR
STARTCHAR ycircumflex
ENCODING 375
SWIDTH 500 0
DWIDTH 10 0
BBX 10 20 0 -5
BITMAP
0E00
0F00
1B80
0000
C0C0
C0C0
6180
6180
6180
3300
3300
1E00
1E00
0C00
0C00
0C00
0800
1800
7000
7000
ENDCHAR
STARTCHAR Ydieresis
ENCODING 376
SWIDTH 666 0
DWIDTH 13 0
BBX 12 18 0 0
BITMAP
1980
1980
0000
C030
E070
6060
30C0
30C0
1980
0F00
0F00
0600
0600
0600
0600
0600
0600
0600
ENDCHAR
STARTCHAR Zacute
ENCODING 377
SWIDTH 610 0
DWIDTH 12 0
BBX 9 19 1 0
BITMAP
0C00
1800
3000
0000
FF80
FF80
0180
0300
0600
0600
0C00
1C00
1800
3000
3000
6000
C000
FF80
FF80
ENDCHAR
STARTCHAR zacute
ENCODING 378
SWIDTH 500 0
DWIDTH 10 0
BBX 8 15 1 0
BITMAP
0E
18
18
00
FF
FF
03
06
0C
18
30
60
C0
FF
FF
ENDCHAR
STARTCHAR Zdotaccent
ENCODING 379
SWIDTH 610 0
DWIDTH 12 0
BBX 9 18 1 0
BITMAP
0C00
0C00
0000
FF80
FF80
0180
0300
0600
0600
0C00
1C00
1800
3000
3000
6000
C000
FF80
FF80
ENDCHAR
STARTCHAR zdotaccent
ENCODING 380
SWIDTH 500 0
DWIDTH 10 0
BBX 8 14 1 0
BITMAP
0C
0C
00
FF
FF
03
06
0C
18
30
60
C0
FF
FF
ENDCHAR
STARTCHAR Zcaron
ENCODING 381
SWIDTH 610 0
DWIDTH 12 0
BBX 9 19 1 0
BITMAP
3300
1E00
0C00
0000
FF80
FF80
0180
0300
0600
0600
0C00
1C00
1800
3000
3000
6000
C000
FF80
FF80
ENDCHAR
STARTCHAR zcaron
ENCODING 382
SWIDTH 500 0
DWIDTH 10 0
BBX 8 15 1 0
BITMAP
37
1E
1C
00
FF
FF
03
06
0C
18
30
60
C0
FF
FF
ENDCHAR
STARTCHAR longs
ENCODING 383
SWIDTH 250 0
DWIDTH 5 0
BBX 5 15 1 0
BITMAP
78
F8
C0
C0
C0
C0
C0
C0
C0
C0
C0
C0
C0
C0
C0
ENDCHAR
STARTCHAR uni0180
ENCODING 384
SWIDTH 556 0
DWIDTH 11 0
BBX 10 15 0 0
BITMAP
6000
FC00
FC00
6000
6F00
7F80
71C0
60C0
60C0
60C0
60C0
60C0
7180
7F80
6F00
ENDCHAR
STARTCHAR uni0181
ENCODING 385
SWIDTH 748 0
DWIDTH 15 0
BBX 14 15 -1 0
BITMAP
7FE0
FFF0
CC38
CC18
CC18
0C38
0FF0
0FF0
0C18
0C0C
0C0C
0C0C
0C1C
0FF8
0FF0
ENDCHAR
STARTCHAR uni0182
ENCODING 386
SWIDTH 654 0
DWIDTH 12 0
BBX 9 15 1 0
BITMAP
FF00
FF00
C000
C000
C000
C000
FE00
FF00
C380
C180
C180
C180
C380
FF00
FE00
ENDCHAR
STARTCHAR uni0183
ENCODING 387
SWIDTH 556 0
DWIDTH 11 0
BBX 9 15 1 0
BITMAP
FE00
FE00
C000
C000
DE00
FF00
E380
C180
C180
C180
C180
C180
E300
FF00
DE00
ENDCHAR
STARTCHAR uni0184
ENCODING 388
SWIDTH 654 0
DWIDTH 13 0
BBX 12 15 0 0
BITMAP
2000
6000
E000
E000
6000
6000
6000
7FC0
7FE0
6070
6030
6030
6070
7FE0
7FC0
ENDCHAR
STARTCHAR uni0185
ENCODING 389
SWIDTH 556 0
DWIDTH 11 0
BBX 10 15 0 0
BITMAP
2000
6000
E000
6000
6F00
7F80
71C0
60C0
60C0
60C0
60C0
60C0
7180
7F80
6F00
ENDCHAR
STARTCHAR uni0186
ENCODING 390
SWIDTH 722 0
DWIDTH 14 0
BBX 11 15 1 0
BITMAP
1F00
7F80
61C0
C0C0
C060
0060
0060
0060
0060
0060
C060
C0C0
61C0
7F80
1F00
ENDCHAR
STARTCHAR uni0187
ENCODING 391
SWIDTH 722 0
DWIDTH 14 0
BBX 14 16 1 0
BITMAP
001C
1F20
3FE0
70E0
6060
C060
C000
C000
C000
C000
C000
C060
6060
70C0
3FC0
1F00
ENDCHAR
STARTCHAR uni0188
ENCODING 392
SWIDTH 500 0
DWIDTH 10 0
BBX 12 13 1 0
BITMAP
0070
0080
1E80
7F80
6380
C180
C000
C000
C000
C180
6380
7F00
1E00
ENDCHAR
STARTCHAR uni0189
ENCODING 393
SWIDTH 722 0
DWIDTH 14 0
BBX 12 15 0 0
BITMAP
7F00
7FC0
60E0
6060
6030
6030
FC30
FC30
6030
6030
6030
6060
60E0
7FC0
7F00
ENDCHAR
STARTCHAR uni018A
ENCODING 394
SWIDTH 803 0
DWIDTH 16 0
BBX 15 15 -1 0
BITMAP
7FE0
FFF8
CC1C
CC0C
CC06
0C06
0C06
0C06
0C06
0C06
0C06
0C0C
0C1C
0FF8
0FE0
ENDCHAR
STARTCHAR uni018B
ENCODING 395
SWIDTH 654 0
DWIDTH 13 0
BBX 10 15 1 0
BITMAP
3FC0
3FC0
00C0
00C0
00C0
00C0
3FC0
7FC0
E0C0
C0C0
C0C0
C0C0
E0C0
7FC0
3FC0
ENDCHAR
STARTCHAR uni018C
ENCODING 396
SWIDTH 556 0
DWIDTH 11 0
BBX 9 15 1 0
BITMAP
3F80
3F80
0180
0180
3D80
7F80
6380
C180
C180
C180
C180
C180
6380
7F80
3D80
ENDCHAR
STARTCHAR uni018D
ENCODING 397
SWIDTH 556 0
DWIDTH 11 0
BBX 9 16 1 -5
BITMAP
3E00
7F00
6300
C180
C180
C180
C180
C180
6300
7F00
3E00
1800
0C00
0600
7F00
7F00
ENDCHAR
STARTCHAR uni018E
ENCODING 398
SWIDTH 666 0
DWIDTH 13 0
BBX 10 15 1 0
BITMAP
FFC0
FFC0
00C0
00C0
00C0
00C0
7FC0
7FC0
00C0
00C0
00C0
00C0
00C0
FFC0
FFC0
ENDCHAR
STARTCHAR uni0190
ENCODING 400
SWIDTH 634 0
DWIDTH 13 0
BBX 10 15 1 0
BITMAP
1F00
3F80
71C0
60C0
6000
3000
1E00
3E00
6000
C000
C000
C0C0
E1C0
7F80
1F00
ENDCHAR
STARTCHAR uni0191
ENCODING 401
SWIDTH 610 0
DWIDTH 12 0
BBX 11 20 -1 -5
BITMAP
3FE0
3FE0
3000
3000
3000
3000
3FC0
3FC0
3000
3000
3000
3000
3000
3000
3000
3000
3000
3000
F000
E000
ENDCHAR
STARTCHAR florin
ENCODING 402
SWIDTH 556 0
DWIDTH 11 0
BBX 9 20 1 -5
BITMAP
0380
0780
0600
0600
1F80
1F80
0C00
0C00
0C00
0C00
0C00
0C00
1800
1800
1800
1800
1800
1800
F000
F000
ENDCHAR
STARTCHAR uni0193
ENCODING 403
SWIDTH 777 0
DWIDTH 16 0
BBX 16 16 1 0
BITMAP
0007
0FC8
3FF8
3838
6018
E000
C000
C000
C1F8
C1F8
C018
E018
6018
7078
3FF8
0F98
ENDCHAR
STARTCHAR uni0194
ENCODING 404
SWIDTH 666 0
DWIDTH 13 0
BBX 13 20 0 -5
BITMAP
C018
6030
6030
3070
3060
3060
18C0
18C0
0D80
0D80
0780
0700
0700
0700
0700
0D80
0D80
0D80
0F80
0700
ENDCHAR
STARTCHAR uni0195
ENCODING 405
SWIDTH 892 0
DWIDTH 18 0
BBX 16 15 1 0
BITMAP
C000
C000
C000
C000
DF03
FF03
E383
C183
C183
C183
C183
C183
C1C7
C0FE
C07C
ENDCHAR
STARTCHAR uni0196
ENCODING 406
SWIDTH 228 0
DWIDTH 4 0
BBX 2 15 1 0
BITMAP
C0
C0
C0
C0
C0
C0
C0
C0
C0
C0
C0
C0
C0
C0
C0
ENDCHAR
STARTCHAR uni0197
ENCODING 407
SWIDTH 277 0
DWIDTH 6 0
BBX 6 15 0 0
BITMAP
30
30
30
30
30
FC
FC
30
30
30
30
30
30
30
30
ENDCHAR
STARTCHAR uni0198
ENCODING 408
SWIDTH 666 0
DWIDTH 13 0
BBX 11 15 2 0
BITMAP
70E0
F0C0
C180
C300
C600
CC00
D800
FC00
E600
C600
C300
C180
C180
C0C0
C060
ENDCHAR
STARTCHAR uni0199
ENCODING 409
SWIDTH 500 0
DWIDTH 10 0
BBX 8 15 1 0
BITMAP
70
F0
C0
C0
C3
C6
CC
D8
F0
F8
CC
CC
C6
C6
C3
ENDCHAR
STARTCHAR uni019A
ENCODING 410
SWIDTH 228 0
DWIDTH 4 0
BBX 4 15 0 0
BITMAP
60
60
60
60
60
60
F0
F0
60
60
60
60
60
60
60
ENDCHAR
STARTCHAR uni019B
ENCODING 411
SWIDTH 500 0
DWIDTH 10 0
BBX 9 15 1 0
BITMAP
7400
7800
3800
7800
9C00
1C00
1C00
3600
3600
3600
6300
6300
6300
C180
C180
ENDCHAR
STARTCHAR uni019C
ENCODING 412
SWIDTH 833 0
DWIDTH 17 0
BBX 15 15 1 0
BITMAP
C186
C186
C186
C186
C186
C186
C186
C186
C186
C186
C186
C186
C38E
7FFE
3CF6
ENDCHAR
STARTCHAR uni019D
ENCODING 413
SWIDTH 722 0
DWIDTH 14 0
BBX 13 20 -1 -5
BITMAP
3018
3818
3818
3C18
3618
3618
3318
3118
3198
30D8
30D8
3078
3038
3038
3018
3000
3000
3000
F000
E000
ENDCHAR
STARTCHAR uni019E
ENCODING 414
SWIDTH 556 0
DWIDTH 11 0
BBX 9 16 1 -5
BITMAP
DE00
FF00
E380
C180
C180
C180
C180
C180
C180
C180
C180
0180
0180
0180
0180
0180
ENDCHAR
STARTCHAR uni019F
ENCODING 415
SWIDTH 777 0
DWIDTH 16 0
BBX 13 15 1 0
BITMAP
0F80
3FE0
7070
6030
C018
C018
FFF8
FFF8
C018
C018
E038
6030
7070
3FE0
0F80
ENDCHAR
STARTCHAR Ohorn
ENCODING 416
SWIDTH 777 0
DWIDTH 16 0
BBX 13 17 1 0
BITMAP
0018
0018
0F88
3FE8
7070
6030
E038
C018
C018
C018
C018
C018
E038
6030
7070
3FE0
0F80
ENDCHAR
STARTCHAR ohorn
ENCODING 417
SWIDTH 556 0
DWIDTH 11 0
BBX 9 13 1 0
BITMAP
0180
0180
3E80
7F80
E300
C180
C180
C180
C180
C180
E380
7F00
3E00
ENDCHAR
STARTCHAR uni01A2
ENCODING 418
SWIDTH 881 0
DWIDTH 18 0
BBX 15 20 1 -5
BITMAP
0FC6
3FFE
707E
6066
E066
C066
C066
C066
C066
C066
E066
6066
7066
3FE6
0F86
0006
0006
0006
0006
0006
ENDCHAR
STARTCHAR uni01A3
ENCODING 419
SWIDTH 703 0
DWIDTH 14 0
BBX 12 16 1 -5
BITMAP
1E70
7FF0
6330
C330
C330
C330
C330
C330
6330
7F30
3E30
0030
0030
0030
0030
0030
ENDCHAR
STARTCHAR uni01A4
ENCODING 420
SWIDTH 748 0
DWIDTH 15 0
BBX 14 15 -1 0
BITMAP
7FF0
FFF8
CC1C
CC0C
CC0C
0C0C
0C1C
0FF8
0FF0
0C00
0C00
0C00
0C00
0C00
0C00
ENDCHAR
STARTCHAR uni01A5
ENCODING 421
SWIDTH 556 0
DWIDTH 11 0
BBX 9 20 1 -5
BITMAP
7000
F000
C000
C000
DE00
FF00
E380
C180
C180
C180
C180
C180
E300
FF00
DE00
C000
C000
C000
C000
C000
ENDCHAR
STARTCHAR uni01A6
ENCODING 422
SWIDTH 666 0
DWIDTH 13 0
BBX 12 17 1 -2
BITMAP
C000
FF80
FFC0
C0E0
C060
C060
C060
C060
C0C0
FFC0
FF00
C700
C300
C180
C0C0
0060
0030
ENDCHAR
STARTCHAR uni01A7
ENCODING 423
SWIDTH 666 0
DWIDTH 13 0
BBX 10 15 1 0
BITMAP
3E00
7F00
6380
C180
C180
0380
0F00
7E00
F000
C000
C0C0
C0C0
E180
7F80
3E00
ENDCHAR
STARTCHAR uni01A8
ENCODING 424
SWIDTH 500 0
DWIDTH 10 0
BBX 8 11 1 0
BITMAP
3C
FF
C3
03
0F
7E
E0
C3
C7
7E
3C
ENDCHAR
STARTCHAR uni01A9
ENCODING 425
SWIDTH 611 0
DWIDTH 12 0
BBX 9 15 1 0
BITMAP
FF80
FF80
C000
6000
3000
1800
1800
0C00
1800
3000
3000
6000
C000
FF80
FF80
ENDCHAR
STARTCHAR uni01AA
ENCODING 426
SWIDTH 416 0
DWIDTH 8 0
BBX 8 20 0 -5
BITMAP
70
88
8C
8C
7C
0C
0C
0C
0C
0C
0C
0C
0C
0C
0C
0C
0C
0C
0F
07
ENDCHAR
STARTCHAR uni01AB
ENCODING 427
SWIDTH 277 0
DWIDTH 6 0
BBX 5 19 0 -5
BITMAP
60
60
60
F8
F8
60
60
60
60
60
60
60
78
38
18
18
18
78
70
ENDCHAR
STARTCHAR uni01AC
ENCODING 428
SWIDTH 620 0
DWIDTH 12 0
BBX 12 15 0 0
BITMAP
7FF0
FFF0
C600
C600
C600
0600
0600
0600
0600
0600
0600
0600
0600
0600
0600
ENDCHAR
STARTCHAR uni01AD
ENCODING 429
SWIDTH 277 0
DWIDTH 6 0
BBX 6 15 0 0
BITMAP
3C
7C
60
60
F8
F8
60
60
60
60
60
60
60
78
38
ENDCHAR
STARTCHAR uni01AE
ENCODING 430
SWIDTH 610 0
DWIDTH 12 0
BBX 12 20 0 -5
BITMAP
FFF0
FFF0
0600
0600
0600
0600
0600
0600
0600
0600
0600
0600
0600
0600
0600
0600
0600
0600
0780
0380
ENDCHAR
STARTCHAR Uhorn
ENCODING 431
SWIDTH 722 0
DWIDTH 14 0
BBX 12 18 1 0
BITMAP
0030
0030
0010
C070
C060
C060
C060
C060
C060
C060
C060
C060
C060
C060
C060
60C0
7FC0
1F00
ENDCHAR
STARTCHAR uhorn
ENCODING 432
SWIDTH 556 0
DWIDTH 11 0
BBX 10 14 1 0
BITMAP
00C0
00C0
0040
C1C0
C180
C180
C180
C180
C180
C180
C180
E380
7F80
3D80
ENDCHAR
STARTCHAR uni01B1
ENCODING 433
SWIDTH 768 0
DWIDTH 15 0
BBX 12 15 1 0
BITMAP
F9F0
F9F0
30C0
6060
6060
C030
C030
C030
C030
C030
C030
6060
70E0
3FC0
1F80
ENDCHAR
STARTCHAR uni01B2
ENCODING 434
SWIDTH 722 0
DWIDTH 14 0
BBX 11 15 1 0
BITMAP
C3C0
C3E0
C060
C060
C060
C060
C060
C060
C060
C060
C0C0
E0C0
61C0
7F80
1F00
ENDCHAR
STARTCHAR uni01B3
ENCODING 435
SWIDTH 771 0
DWIDTH 15 0
BBX 16 15 0 0
BITMAP
C00E
601F
301B
3033
1860
0C40
0CC0
0780
0300
0300
0300
0300
0300
0300
0300
ENDCHAR
STARTCHAR uni01B4
ENCODING 436
SWIDTH 500 0
DWIDTH 10 0
BBX 15 20 0 -5
BITMAP
003C
007E
0062
0060
C0C0
60C0
6180
6180
3180
3300
3300
1E00
1E00
1E00
0C00
0C00
1800
1800
7800
7000
ENDCHAR
STARTCHAR uni01B5
ENCODING 437
SWIDTH 610 0
DWIDTH 12 0
BBX 9 15 1 0
BITMAP
7F80
7F80
0180
0300
0600
0600
3F00
3F00
1800
3000
3000
6000
C000
FF80
FF80
ENDCHAR
STARTCHAR uni01B6
ENCODING 438
SWIDTH 500 0
DWIDTH 10 0
BBX 8 11 1 0
BITMAP
FF
FF
03
06
7F
7F
30
60
C0
FF
FF
ENDCHAR
STARTCHAR uni01B7
ENCODING 439
SWIDTH 552 0
DWIDTH 11 0
BBX 10 20 0 -5
BITMAP
FFC0
FFC0
01C0
0380
0700
0E00
1C00
1E00
1F00
0380
01C0
00C0
00C0
00C0
00C0
00C0
0180
8380
FF00
7E00
ENDCHAR
STARTCHAR uni01B8
ENCODING 440
SWIDTH 552 0
DWIDTH 11 0
BBX 10 20 1 -5
BITMAP
FFC0
FFC0
E000
7000
3800
1C00
0E00
1E00
3E00
7000
E000
C000
C000
C000
C000
C000
6000
7040
3FC0
1F80
ENDCHAR
STARTCHAR uni01B9
ENCODING 441
SWIDTH 471 0
DWIDTH 9 0
BBX 8 16 1 -5
BITMAP
FE
FE
60
60
30
38
60
E0
C0
C0
C0
C0
C0
61
7F
3E
ENDCHAR
STARTCHAR uni01BA
ENCODING 442
SWIDTH 471 0
DWIDTH 9 0
BBX 8 16 1 -5
BITMAP
7F
7F
06
06
0C
1C
06
06
0E
7C
F8
C0
C2
C6
7E
3C
ENDCHAR
STARTCHAR uni01BB
ENCODING 443
SWIDTH 556 0
DWIDTH 11 0
BBX 9 15 1 0
BITMAP
3E00
7F00
6380
C180
C180
0180
0300
FF80
FF80
0E00
1800
3000
6000
FF80
FF80
ENDCHAR
STARTCHAR uni01BC
ENCODING 444
SWIDTH 556 0
DWIDTH 11 0
BBX 10 15 0 0
BITMAP
FF80
FF80
6000
6000
6F00
7F80
6180
00C0
00C0
00C0
C0C0
C1C0
6180
7F00
1E00
ENDCHAR
STARTCHAR uni01BD
ENCODING 445
SWIDTH 457 0
DWIDTH 9 0
BBX 8 11 0 0
BITMAP
FF
FF
60
60
7E
7F
03
03
87
FE
7C
ENDCHAR
STARTCHAR uni01BE
ENCODING 446
SWIDTH 538 0
DWIDTH 11 0
BBX 9 14 1 0
BITMAP
6000
6000
6000
F800
F800
6000
6000
7E00
3F00
0380
6180
7180
3F00
1E00
ENDCHAR
STARTCHAR uni01BF
ENCODING 447
SWIDTH 552 0
DWIDTH 11 0
BBX 9 16 1 -5
BITMAP
DE00
FF00
E380
C180
C180
C180
C180
C180
C300
C600
CE00
DC00
F000
E000
C000
C000
ENDCHAR
STARTCHAR uni01C0
ENCODING 448
SWIDTH 259 0
DWIDTH 5 0
BBX 2 20 1 -5
BITMAP
C0
C0
C0
C0
C0
C0
C0
C0
C0
C0
C0
C0
C0
C0
C0
C0
C0
C0
C0
C0
ENDCHAR
STARTCHAR uni01C2
ENCODING 450
SWIDTH 727 0
DWIDTH 15 0
BBX 12 20 1 -5
BITMAP
0600
0600
0600
0600
0600
FFF0
FFF0
0600
0600
0600
FFF0
FFF0
0600
0600
0600
0600
0600
0600
0600
0600
ENDCHAR
STARTCHAR uni01C3
ENCODING 451
SWIDTH 277 0
DWIDTH 6 0
BBX 2 15 2 0
BITMAP
C0
C0
C0
C0
C0
C0
C0
C0
C0
C0
C0
00
00
C0
C0
ENDCHAR
STARTCHAR uni01C4
ENCODING 452
SWIDTH 1294 0
DWIDTH 26 0
BBX 22 19 1 0
BITMAP
0003B0
0000A0
0000E0
000000
FE07FC
FF87FC
C1C018
C0C018
C06030
C06060
C06060
C060C0
C060C0
C06180
C06300
C0C300
C1C600
FF87FC
FE07FC
ENDCHAR
STARTCHAR uni01C5
ENCODING 453
SWIDTH 1183 0
DWIDTH 24 0
BBX 21 15 1 0
BITMAP
FE03B0
FF81A0
C1C0E0
C0C000
C067F8
C067F8
C06030
C06060
C06060
C060C0
C06180
C0C300
C1C600
FF87F8
FE07F8
ENDCHAR
STARTCHAR uni01C6
ENCODING 454
SWIDTH 1037 0
DWIDTH 21 0
BBX 19 15 1 0
BITMAP
018EC0
018680
018380
018000
3D9FE0
7F9FE0
E380C0
C18180
C18180
C18300
C18600
C18C00
E39800
7F9FE0
3D9FE0
ENDCHAR
STARTCHAR uni01C7
ENCODING 455
SWIDTH 1046 0
DWIDTH 21 0
BBX 19 15 1 0
BITMAP
C00060
C00060
C00060
C00060
C00060
C00060
C00060
C00060
C00060
C00060
C00060
C01860
C018E0
FFCFC0
FFC780
ENDCHAR
STARTCHAR uni01C8
ENCODING 456
SWIDTH 786 0
DWIDTH 16 0
BBX 13 20 1 -5
BITMAP
C018
C018
C000
C000
C018
C018
C018
C018
C018
C018
C018
C018
C018
FFD8
FFD8
0018
0018
0018
0038
0030
ENDCHAR
STARTCHAR uni01C9
ENCODING 457
SWIDTH 423 0
DWIDTH 8 0
BBX 5 20 1 -5
BITMAP
D8
D8
C0
C0
D8
D8
D8
D8
D8
D8
D8
D8
D8
D8
D8
18
18
18
38
30
ENDCHAR
STARTCHAR uni01CA
ENCODING 458
SWIDTH 1183 0
DWIDTH 24 0
BBX 21 15 1 0
BITMAP
C06018
E06018
F06018
F06018
D86018
D86018
CC6018
CE6018
C66018
C36018
C36018
C1E618
C1E630
C0E7F0
C063E0
ENDCHAR
STARTCHAR uni01CB
ENCODING 459
SWIDTH 905 0
DWIDTH 18 0
BBX 15 20 1 -5
BITMAP
C066
E066
F060
F060
D866
D866
CC66
CE66
C666
C366
C366
C1E6
C1E6
C0E6
C066
0006
0006
000C
000C
000C
ENDCHAR
STARTCHAR uni01CC
ENCODING 460
SWIDTH 753 0
DWIDTH 15 0
BBX 13 20 1 -5
BITMAP
0018
0018
0000
0000
DE18
FF18
E398
C198
C198
C198
C198
C198
C198
C198
C198
0018
0018
0030
0030
0030
ENDCHAR
STARTCHAR uni01CD
ENCODING 461
SWIDTH 666 0
DWIDTH 14 0
BBX 13 19 0 0
BITMAP
0CC0
0780
0300
0000
0700
0700
0D80
0D80
0D80
18C0
18C0
18C0
3060
3FE0
7FF0
6030
6030
C018
C018
ENDCHAR
STARTCHAR uni01CE
ENCODING 462
SWIDTH 556 0
DWIDTH 11 0
BBX 9 15 1 0
BITMAP
3300
1E00
0C00
0000
3E00
7F00
C180
0180
3F80
7F80
E180
C180
C380
FF80
7D80
ENDCHAR
STARTCHAR uni01CF
ENCODING 463
SWIDTH 277 0
DWIDTH 5 0
BBX 6 19 -1 0
BITMAP
EC
28
38
00
30
30
30
30
30
30
30
30
30
30
30
30
30
30
30
ENDCHAR
STARTCHAR uni01D0
ENCODING 464
SWIDTH 228 0
DWIDTH 4 0
BBX 6 15 -1 0
BITMAP
CC
78
30
00
30
30
30
30
30
30
30
30
30
30
30
ENDCHAR
STARTCHAR uni01D1
ENCODING 465
SWIDTH 777 0
DWIDTH 16 0
BBX 13 19 1 0
BITMAP
1DC0
0500
0700
0000
0F80
3FE0
7070
6030
E038
C018
C018
C018
C018
C018
E038
6030
7070
3FE0
0F80
ENDCHAR
STARTCHAR uni01D2
ENCODING 466
SWIDTH 556 0
DWIDTH 11 0
BBX 9 15 1 0
BITMAP
3300
1E00
0E00
0000
3E00
7F00
E380
C180
C180
C180
C180
C180
E380
7F00
3E00
ENDCHAR
STARTCHAR uni01D3
ENCODING 467
SWIDTH 722 0
DWIDTH 14 0
BBX 11 19 1 0
BITMAP
1980
0F00
0600
0000
C060
C060
C060
C060
C060
C060
C060
C060
C060
C060
C060
C060
60C0
7FC0
1F00
ENDCHAR
STARTCHAR uni01D4
ENCODING 468
SWIDTH 556 0
DWIDTH 11 0
BBX 9 15 1 0
BITMAP
3300
1E00
0E00
0000
C180
C180
C180
C180
C180
C180
C180
C180
E380
7F80
3D80
ENDCHAR
STARTCHAR uni01D5
ENCODING 469
SWIDTH 722 0
DWIDTH 14 0
BBX 11 19 1 0
BITMAP
1F80
0000
1980
0000
C060
C060
C060
C060
C060
C060
C060
C060
C060
C060
C060
C060
60C0
7FC0
1F00
ENDCHAR
STARTCHAR uni01D6
ENCODING 470
SWIDTH 556 0
DWIDTH 11 0
BBX 9 16 1 0
BITMAP
3F00
0000
3300
3300
0000
C180
C180
C180
C180
C180
C180
C180
C180
E380
7F80
3D80
ENDCHAR
STARTCHAR uni01D7
ENCODING 471
SWIDTH 722 0
DWIDTH 14 0
BBX 11 19 1 0
BITMAP
0300
0600
1980
0000
C060
C060
C060
C060
C060
C060
C060
C060
C060
C060
C060
C060
60C0
7FC0
1F00
ENDCHAR
STARTCHAR uni01D8
ENCODING 472
SWIDTH 556 0
DWIDTH 11 0
BBX 9 17 1 0
BITMAP
0C00
1800
0000
6600
6600
0000
C180
C180
C180
C180
C180
C180
C180
C180
E380
7F80
3D80
ENDCHAR
STARTCHAR uni01D9
ENCODING 473
SWIDTH 722 0
DWIDTH 14 0
BBX 11 20 1 0
BITMAP
3B80
0E00
0000
3180
0000
C060
C060
C060
C060
C060
C060
C060
C060
C060
C060
C060
C060
60C0
7FC0
1F00
ENDCHAR
STARTCHAR uni01DA
ENCODING 474
SWIDTH 556 0
DWIDTH 11 0
BBX 9 18 1 0
BITMAP
E600
6C00
3800
0000
6600
6600
0000
C180
C180
C180
C180
C180
C180
C180
C180
E380
7F80
3D80
ENDCHAR
STARTCHAR uni01DB
ENCODING 475
SWIDTH 722 0
DWIDTH 14 0
BBX 11 20 1 0
BITMAP
0C00
0600
0000
1980
0000
C060
C060
C060
C060
C060
C060
C060
C060
C060
C060
C060
C060
60C0
7FC0
1F00
ENDCHAR
STARTCHAR uni01DC
ENCODING 476
SWIDTH 556 0
DWIDTH 11 0
BBX 9 17 1 0
BITMAP
1C00
0400
0000
3300
3300
0000
C180
C180
C180
C180
C180
C180
C180
C180
E380
7F80
3D80
ENDCHAR
STARTCHAR uni01DD
ENCODING 477
SWIDTH 556 0
DWIDTH 11 0
BBX 9 11 1 0
BITMAP
3C00
7F00
E300
C180
0180
FF80
FF80
C180
6300
7F00
3E00
ENDCHAR
STARTCHAR uni01DE
ENCODING 478
SWIDTH 666 0
DWIDTH 14 0
BBX 13 19 0 0
BITMAP
0FC0
0000
0CC0
0000
0700
0700
0D80
0D80
0D80
18C0
18C0
18C0
3060
3FE0
7FF0
6030
6030
C018
C018
ENDCHAR
STARTCHAR uni01DF
ENCODING 479
SWIDTH 556 0
DWIDTH 11 0
BBX 9 16 1 0
BITMAP
3F00
0000
3300
3300
0000
3E00
7F00
C180
0180
3F80
7F80
E180
C180
C380
FF80
7D80
ENDCHAR
STARTCHAR uni01E0
ENCODING 480
SWIDTH 666 0
DWIDTH 14 0
BBX 13 19 0 0
BITMAP
0FC0
0000
0300
0000
0700
0700
0D80
0D80
0D80
18C0
18C0
18C0
3060
3FE0
7FF0
6030
6030
C018
C018
ENDCHAR
STARTCHAR uni01E1
ENCODING 481
SWIDTH 556 0
DWIDTH 11 0
BBX 9 16 1 0
BITMAP
3F00
0000
0C00
0C00
0000
3E00
7F00
C180
0180
3F80
7F80
E180
C180
C380
FF80
7D80
ENDCHAR
STARTCHAR uni01E2
ENCODING 482
SWIDTH 1000 0
DWIDTH 21 0
BBX 19 18 0 0
BITMAP
001F80
001F80
000000
00FFE0
00FFE0
01B000
01B000
033000
033000
063FC0
0C3FC0
0C3000
1FF000
1FF000
303000
603000
603FE0
C03FE0
ENDCHAR
STARTCHAR uni01E3
ENCODING 483
SWIDTH 889 0
DWIDTH 17 0
BBX 15 14 1 0
BITMAP
0FC0
0FC0
0000
3CF8
FFFC
C38C
0306
3FFE
7FFE
E300
C300
C786
FFFC
78F8
ENDCHAR
STARTCHAR uni01E4
ENCODING 484
SWIDTH 777 0
DWIDTH 16 0
BBX 14 15 1 0
BITMAP
0FC0
3FE0
7870
6038
E018
C000
C000
C1F8
C1F8
C018
E1FC
61FC
7038
3FF8
0F98
ENDCHAR
STARTCHAR uni01E5
ENCODING 485
SWIDTH 556 0
DWIDTH 11 0
BBX 10 16 1 -5
BITMAP
3D80
7F80
6380
C180
C180
C180
C180
C180
6380
7F80
3D80
0180
FFC0
0300
7F00
7E00
ENDCHAR
STARTCHAR Gcaron
ENCODING 486
SWIDTH 777 0
DWIDTH 15 0
BBX 12 19 1 0
BITMAP
1DC0
0500
0700
0000
0F80
3FC0
70E0
6030
E030
C000
C000
C3F0
C3F0
C030
E030
6030
70F0
3FF0
0FB0
ENDCHAR
STARTCHAR gcaron
ENCODING 487
SWIDTH 556 0
DWIDTH 11 0
BBX 9 20 1 -5
BITMAP
6600
3C00
1800
0000
3D80
7F80
E380
C180
C180
C180
C180
C180
E380
7F80
3D80
0180
0180
C300
FF00
7E00
ENDCHAR
STARTCHAR uni01E8
ENCODING 488
SWIDTH 666 0
DWIDTH 14 0
BBX 12 19 1 0
BITMAP
1980
0F00
0600
0000
C060
C0C0
C180
C300
C600
CC00
DC00
FC00
E600
C300
C180
C180
C0C0
C060
C030
ENDCHAR
STARTCHAR uni01E9
ENCODING 489
SWIDTH 500 0
DWIDTH 10 0
BBX 9 19 1 0
BITMAP
7600
3400
1C00
0000
C000
C000
C000
C000
C300
C600
CC00
D800
F000
F800
CC00
C600
C600
C300
C180
ENDCHAR
STARTCHAR uni01EA
ENCODING 490
SWIDTH 777 0
DWIDTH 16 0
BBX 13 20 1 -5
BITMAP
0F80
3FE0
7070
6030
E038
C018
C018
C018
C018
C018
E038
6030
3070
3FE0
0F80
0400
0400
0400
0400
0380
ENDCHAR
STARTCHAR uni01EB
ENCODING 491
SWIDTH 556 0
DWIDTH 11 0
BBX 9 16 1 -5
BITMAP
3E00
7F00
6300
C180
C180
C180
C180
C180
6300
7F00
3E00
1000
1000
1000
1000
0E00
ENDCHAR
STARTCHAR uni01EC
ENCODING 492
SWIDTH 777 0
DWIDTH 16 0
BBX 13 23 1 -5
BITMAP
1F80
1F80
0000
0F80
3FE0
7070
6030
E038
C018
C018
C018
C018
C018
E038
6030
3070
3FE0
0F80
0400
0400
0400
0400
0380
ENDCHAR
STARTCHAR uni01ED
ENCODING 493
SWIDTH 556 0
DWIDTH 11 0
BBX 9 19 1 -5
BITMAP
7E00
7E00
0000
3E00
7F00
6300
C180
C180
C180
C180
C180
6300
7F00
3E00
1000
1000
1000
1000
0E00
ENDCHAR
STARTCHAR uni01EE
ENCODING 494
SWIDTH 552 0
DWIDTH 11 0
BBX 10 24 0 -5
BITMAP
3300
1E00
0C00
0000
FFC0
FFC0
01C0
0380
0700
0E00
1C00
1E00
1F00
0380
01C0
00C0
00C0
00C0
00C0
00C0
0180
8380
FF00
7E00
ENDCHAR
STARTCHAR uni01EF
ENCODING 495
SWIDTH 471 0
DWIDTH 9 0
BBX 8 20 0 -5
BITMAP
66
3C
1C
00
7F
7F
06
06
0C
1C
06
07
03
03
03
03
03
86
FE
7C
ENDCHAR
STARTCHAR uni01F0
ENCODING 496
SWIDTH 228 0
DWIDTH 4 0
BBX 7 20 -1 -5
BITMAP
C6
6C
38
00
30
30
30
30
30
30
30
30
30
30
30
30
30
30
F0
E0
ENDCHAR
STARTCHAR uni01F1
ENCODING 497
SWIDTH 1294 0
DWIDTH 26 0
BBX 22 15 1 0
BITMAP
FE07FC
FF87FC
C1C018
C0C018
C06030
C06060
C06060
C060C0
C060C0
C06180
C06300
C0C300
C1C600
FF87FC
FE07FC
ENDCHAR
STARTCHAR uni01F2
ENCODING 498
SWIDTH 1183 0
DWIDTH 24 0
BBX 21 15 1 0
BITMAP
FE0000
FF8000
C1C000
C0C000
C067F8
C067F8
C06030
C06060
C06060
C060C0
C06180
C0C300
C1C600
FF87F8
FE07F8
ENDCHAR
STARTCHAR uni01F3
ENCODING 499
SWIDTH 1037 0
DWIDTH 21 0
BBX 19 15 1 0
BITMAP
018000
018000
018000
018000
3D9FE0
7F9FE0
E380C0
C18180
C18180
C18300
C18600
C18C00
E39800
7F9FE0
3D9FE0
ENDCHAR
STARTCHAR uni01F4
ENCODING 500
SWIDTH 777 0
DWIDTH 15 0
BBX 12 19 1 0
BITMAP
0180
0300
0600
0000
0F80
3FC0
70E0
6030
E030
C000
C000
C3F0
C3F0
C030
E030
6030
70F0
3FF0
0FB0
ENDCHAR
STARTCHAR uni01F5
ENCODING 501
SWIDTH 556 0
DWIDTH 11 0
BBX 9 20 1 -5
BITMAP
0E00
0C00
1800
0000
3D80
7F80
E380
C180
C180
C180
C180
C180
E380
7F80
3D80
0180
0180
C300
FF00
7E00
ENDCHAR
STARTCHAR uni01F6
ENCODING 502
SWIDTH 1044 0
DWIDTH 21 0
BBX 19 15 1 0
BITMAP
C03000
C03000
C03000
C03000
C03060
C03060
FFF060
FFF060
C03060
C03060
C03060
C03060
C038E0
C01FC0
C00F80
ENDCHAR
STARTCHAR uni01F7
ENCODING 503
SWIDTH 552 0
DWIDTH 11 0
BBX 9 20 1 -5
BITMAP
DE00
FF00
E380
C180
C180
C180
C180
C180
C300
C300
C600
CC00
D800
F000
E000
C000
C000
C000
C000
C000
ENDCHAR
STARTCHAR uni01F8
ENCODING 504
SWIDTH 722 0
DWIDTH 14 0
BBX 11 19 1 0
BITMAP
1C00
0C00
0600
0000
C060
E060
F060
F060
D860
D860
CC60
CE60
C660
C360
C360
C1E0
C1E0
C0E0
C060
ENDCHAR
STARTCHAR uni01F9
ENCODING 505
SWIDTH 556 0
DWIDTH 11 0
BBX 9 15 1 0
BITMAP
1800
0C00
0600
0000
DE00
FF00
E380
C180
C180
C180
C180
C180
C180
C180
C180
ENDCHAR
STARTCHAR Aringacute
ENCODING 506
SWIDTH 666 0
DWIDTH 14 0
BBX 13 18 0 0
BITMAP
0180
0300
0300
0480
0480
0700
0700
0D80
0D80
18C0
18C0
18C0
3FE0
3FE0
6030
6030
C018
C018
ENDCHAR
STARTCHAR aringacute
ENCODING 507
SWIDTH 556 0
DWIDTH 11 0
BBX 9 17 1 0
BITMAP
0700
0600
0C00
0C00
1200
1200
3E00
7F00
C180
0180
3F80
7F80
E180
C180
C380
FF80
7D80
ENDCHAR
STARTCHAR AEacute
ENCODING 508
SWIDTH 1000 0
DWIDTH 21 0
BBX 19 19 0 0
BITMAP
000700
000C00
000C00
001000
00FFE0
00FFE0
01B000
01B000
033000
033000
063FC0
0C3FC0
0C3000
1FF000
1FF000
303000
603000
603FE0
C03FE0
ENDCHAR
STARTCHAR aeacute
ENCODING 509
SWIDTH 889 0
DWIDTH 17 0
BBX 15 15 1 0
BITMAP
00C0
0180
0300
0000
3CF8
FFFC
C38C
0306
3FFE
7FFE
E300
C300
C786
FFFC
78F8
ENDCHAR
STARTCHAR Oslashacute
ENCODING 510
SWIDTH 777 0
DWIDTH 16 0
BBX 13 19 1 0
BITMAP
0180
0300
0600
0000
0F88
3FF0
70F0
6030
E078
C098
C118
C218
C418
C818
F038
6030
7870
7FE0
8F80
ENDCHAR
STARTCHAR oslashacute
ENCODING 511
SWIDTH 556 0
DWIDTH 11 0
BBX 9 15 1 0
BITMAP
0E00
0C00
1800
0000
3F80
7F00
6300
C780
C580
C980
D180
F180
6300
7F00
FE00
ENDCHAR
STARTCHAR uni0200
ENCODING 512
SWIDTH 666 0
DWIDTH 14 0
BBX 13 19 0 0
BITMAP
3F00
1B00
0900
0000
0700
0700
0D80
0D80
0D80
18C0
18C0
18C0
3060
3FE0
7FF0
6030
6030
C018
C018
ENDCHAR
STARTCHAR uni0201
ENCODING 513
SWIDTH 556 0
DWIDTH 11 0
BBX 9 15 1 0
BITMAP
6C00
2400
1200
0000
3E00
7F00
C180
0180
3F80
7F80
E180
C180
C380
FF80
7D80
ENDCHAR
STARTCHAR uni0202
ENCODING 514
SWIDTH 666 0
DWIDTH 14 0
BBX 13 18 0 0
BITMAP
0780
0C80
0000
0700
0700
0D80
0D80
0D80
18C0
18C0
18C0
3060
3FE0
7FF0
6030
6030
C018
C018
ENDCHAR
STARTCHAR uni0203
ENCODING 515
SWIDTH 556 0
DWIDTH 11 0
BBX 9 14 1 0
BITMAP
1E00
3200
0000
3E00
7F00
C180
0180
3F80
7F80
E180
C180
C380
FF80
7D80
ENDCHAR
STARTCHAR uni0204
ENCODING 516
SWIDTH 666 0
DWIDTH 13 0
BBX 10 19 1 0
BITMAP
7E00
3600
1200
0000
FFC0
FFC0
C000
C000
C000
C000
FF80
FF80
C000
C000
C000
C000
C000
FFC0
FFC0
ENDCHAR
STARTCHAR uni0205
ENCODING 517
SWIDTH 556 0
DWIDTH 11 0
BBX 9 15 1 0
BITMAP
6C00
2400
1200
0000
3E00
7F00
E380
C180
FF80
FF80
C000
C000
E180
7F00
3E00
ENDCHAR
STARTCHAR uni0206
ENCODING 518
SWIDTH 666 0
DWIDTH 13 0
BBX 10 18 1 0
BITMAP
0E00
1100
0000
FFC0
FFC0
C000
C000
C000
C000
FF80
FF80
C000
C000
C000
C000
C000
FFC0
FFC0
ENDCHAR
STARTCHAR uni0207
ENCODING 519
SWIDTH 556 0
DWIDTH 11 0
BBX 9 14 1 0
BITMAP
1E00
1300
0000
3E00
7F00
E380
C180
FF80
FF80
C000
C000
E180
7F00
3E00
ENDCHAR
STARTCHAR uni0208
ENCODING 520
SWIDTH 277 0
DWIDTH 5 0
BBX 6 19 -2 0
BITMAP
D8
48
24
00
18
18
18
18
18
18
18
18
18
18
18
18
18
18
18
ENDCHAR
STARTCHAR uni0209
ENCODING 521
SWIDTH 228 0
DWIDTH 4 0
BBX 6 15 -1 0
BITMAP
D8
48
6C
00
30
30
30
30
30
30
30
30
30
30
30
ENDCHAR
STARTCHAR uni020A
ENCODING 522
SWIDTH 277 0
DWIDTH 5 0
BBX 5 18 0 0
BITMAP
70
88
00
60
60
60
60
60
60
60
60
60
60
60
60
60
60
60
ENDCHAR
STARTCHAR uni020B
ENCODING 523
SWIDTH 228 0
DWIDTH 4 0
BBX 5 14 -1 0
BITMAP
78
C8
00
30
30
30
30
30
30
30
30
30
30
30
ENDCHAR
STARTCHAR uni020C
ENCODING 524
SWIDTH 777 0
DWIDTH 16 0
BBX 13 19 1 0
BITMAP
1B00
0900
0480
0000
0F80
3FE0
7070
6030
E038
C018
C018
C018
C018
C018
E038
6030
7070
3FE0
0F80
ENDCHAR
STARTCHAR uni020D
ENCODING 525
SWIDTH 556 0
DWIDTH 11 0
BBX 9 15 1 0
BITMAP
6C00
2400
3600
0000
3E00
7F00
E380
C180
C180
C180
C180
C180
E380
7F00
3E00
ENDCHAR
STARTCHAR uni020E
ENCODING 526
SWIDTH 777 0
DWIDTH 16 0
BBX 13 18 1 0
BITMAP
0700
0880
0000
0F80
3FE0
7070
6030
E038
C018
C018
C018
C018
C018
E038
6030
7070
3FE0
0F80
ENDCHAR
STARTCHAR uni020F
ENCODING 527
SWIDTH 556 0
DWIDTH 11 0
BBX 9 14 1 0
BITMAP
1E00
3200
0000
3E00
7F00
E380
C180
C180
C180
C180
C180
E380
7F00
3E00
ENDCHAR
STARTCHAR uni0210
ENCODING 528
SWIDTH 722 0
DWIDTH 13 0
BBX 11 19 1 0
BITMAP
3600
1200
0900
0000
FF80
FFC0
C0E0
C060
C060
C060
C0C0
FFC0
FF00
C380
C180
C0C0
C0C0
C0C0
C060
ENDCHAR
STARTCHAR uni0211
ENCODING 529
SWIDTH 333 0
DWIDTH 6 0
BBX 6 15 0 0
BITMAP
D8
48
6C
00
6C
7C
70
60
60
60
60
60
60
60
60
ENDCHAR
STARTCHAR uni0212
ENCODING 530
SWIDTH 722 0
DWIDTH 13 0
BBX 11 18 1 0
BITMAP
0E00
1100
0000
FF80
FFC0
C0E0
C060
C060
C060
C0C0
FFC0
FF00
C380
C180
C0C0
C0C0
C0C0
C060
ENDCHAR
STARTCHAR uni0213
ENCODING 531
SWIDTH 333 0
DWIDTH 6 0
BBX 5 14 1 0
BITMAP
70
88
00
D8
F8
E0
C0
C0
C0
C0
C0
C0
C0
C0
ENDCHAR
STARTCHAR uni0214
ENCODING 532
SWIDTH 722 0
DWIDTH 14 0
BBX 11 19 1 0
BITMAP
7E00
3600
1200
0000
C060
C060
C060
C060
C060
C060
C060
C060
C060
C060
C060
C060
60C0
7FC0
1F00
ENDCHAR
STARTCHAR uni0215
ENCODING 533
SWIDTH 556 0
DWIDTH 11 0
BBX 9 15 1 0
BITMAP
FC00
6C00
2400
1200
C180
C180
C180
C180
C180
C180
C180
C180
E380
7F80
3D80
ENDCHAR
STARTCHAR uni0216
ENCODING 534
SWIDTH 722 0
DWIDTH 14 0
BBX 11 18 1 0
BITMAP
0E00
1100
0000
C060
C060
C060
C060
C060
C060
C060
C060
C060
C060
C060
C060
60C0
7FC0
1F00
ENDCHAR
STARTCHAR uni0217
ENCODING 535
SWIDTH 556 0
DWIDTH 11 0
BBX 9 14 1 0
BITMAP
1E00
1300
0000
C180
C180
C180
C180
C180
C180
C180
C180
E380
7F80
3D80
ENDCHAR
STARTCHAR uni0218
ENCODING 536
SWIDTH 666 0
DWIDTH 14 0
BBX 11 20 1 -5
BITMAP
1F00
7FC0
E0E0
C060
C000
E000
7E00
1F80
01C0
0060
C060
C060
70E0
7FC0
1F00
0000
0600
0600
0400
0400
ENDCHAR
STARTCHAR uni0219
ENCODING 537
SWIDTH 500 0
DWIDTH 10 0
BBX 8 16 1 -5
BITMAP
3C
FF
C3
C0
F8
3E
07
03
C3
FE
3C
00
0C
0C
04
08
ENDCHAR
STARTCHAR uni021A
ENCODING 538
SWIDTH 610 0
DWIDTH 13 0
BBX 12 20 0 -5
BITMAP
FFF0
FFF0
0600
0600
0600
0600
0600
0600
0600
0600
0600
0600
0600
0600
0600
0000
0600
0600
0200
0400
ENDCHAR
STARTCHAR uni021B
ENCODING 539
SWIDTH 277 0
DWIDTH 5 0
BBX 5 19 0 -5
BITMAP
60
60
60
F8
F8
60
60
60
60
60
60
60
78
38
00
30
30
10
30
ENDCHAR
STARTCHAR uni021C
ENCODING 540
SWIDTH 500 0
DWIDTH 10 0
BBX 8 20 1 -5
BITMAP
3C
FE
C7
83
03
03
03
06
0E
1E
7B
E3
83
03
06
0E
1C
78
E0
80
ENDCHAR
STARTCHAR uni021D
ENCODING 541
SWIDTH 431 0
DWIDTH 9 0
BBX 7 16 1 -5
BITMAP
78
FC
8E
06
06
06
0C
3C
FE
C6
06
06
0C
3C
F0
C0
ENDCHAR
STARTCHAR uni021E
ENCODING 542
SWIDTH 722 0
DWIDTH 14 0
BBX 11 19 1 0
BITMAP
1980
0F00
0600
0000
C060
C060
C060
C060
C060
C060
FFE0
FFE0
C060
C060
C060
C060
C060
C060
C060
ENDCHAR
STARTCHAR uni021F
ENCODING 543
SWIDTH 556 0
DWIDTH 11 0
BBX 9 19 1 0
BITMAP
7600
3400
1C00
0000
C000
C000
C000
C000
DE00
FF00
E380
C180
C180
C180
C180
C180
C180
C180
C180
ENDCHAR
STARTCHAR uni0220
ENCODING 544
SWIDTH 684 0
DWIDTH 14 0
BBX 11 20 1 -5
BITMAP
DF80
FFC0
E0E0
C060
C060
C060
C060
C060
C060
C060
C060
C060
C060
C060
C060
0060
0060
0060
0060
0060
ENDCHAR
STARTCHAR uni0221
ENCODING 545
SWIDTH 752 0
DWIDTH 15 0
BBX 15 20 1 -5
BITMAP
0180
0180
0180
0180
3D80
7F80
6380
C180
C180
C180
C180
C180
E380
7F80
3D9C
01BE
01E6
00E6
03FE
013C
ENDCHAR
STARTCHAR uni0222
ENCODING 546
SWIDTH 582 0
DWIDTH 12 0
BBX 10 15 1 0
BITMAP
0300
03C0
39C0
F8C0
C0C0
C180
3F00
3F00
6180
C0C0
C0C0
C0C0
E1C0
7F80
3F00
ENDCHAR
STARTCHAR uni0223
ENCODING 547
SWIDTH 534 0
DWIDTH 11 0
BBX 9 15 1 0
BITMAP
2200
6300
C180
C180
C180
6300
3E00
7F00
E380
C180
C180
C180
E380
7F00
3E00
ENDCHAR
STARTCHAR uni0224
ENCODING 548
SWIDTH 610 0
DWIDTH 12 0
BBX 9 18 1 -3
BITMAP
7F80
7F80
0180
0300
0600
0600
0C00
1C00
1800
3000
3000
6000
C000
FF00
FF80
0180
0180
0180
ENDCHAR
STARTCHAR uni0225
ENCODING 549
SWIDTH 500 0
DWIDTH 10 0
BBX 8 14 1 -3
BITMAP
FF
FF
03
06
0C
18
30
60
C0
FE
FF
03
03
03
ENDCHAR
STARTCHAR uni0226
ENCODING 550
SWIDTH 666 0
DWIDTH 14 0
BBX 13 18 0 0
BITMAP
0300
0300
0000
0700
0700
0D80
0D80
0D80
18C0
18C0
18C0
3060
3FE0
7FF0
6030
6030
C018
C018
ENDCHAR
STARTCHAR uni0227
ENCODING 551
SWIDTH 556 0
DWIDTH 11 0
BBX 9 14 1 0
BITMAP
0C00
0C00
0000
3E00
7F00
C180
0180
3F80
7F80
E180
C180
C380
FF80
7D80
ENDCHAR
STARTCHAR uni0228
ENCODING 552
SWIDTH 666 0
DWIDTH 13 0
BBX 10 19 1 -4
BITMAP
FFC0
FFC0
C000
C000
C000
C000
FF80
FF80
C000
C000
C000
C000
C000
FFC0
FFC0
0800
0E00
0600
1C00
ENDCHAR
STARTCHAR uni0229
ENCODING 553
SWIDTH 556 0
DWIDTH 11 0
BBX 9 15 1 -4
BITMAP
3E00
7F00
E380
C180
FF80
FF80
C000
C000
E180
7F00
3E00
0800
0E00
0600
1C00
ENDCHAR
STARTCHAR uni022A
ENCODING 554
SWIDTH 777 0
DWIDTH 16 0
BBX 13 19 1 0
BITMAP
1FC0
0000
1DC0
0000
0F80
3FE0
7070
6030
E038
C018
C018
C018
C018
C018
E038
6030
7070
3FE0
0F80
ENDCHAR
STARTCHAR uni022B
ENCODING 555
SWIDTH 556 0
DWIDTH 11 0
BBX 9 16 1 0
BITMAP
3F00
0000
3300
3300
0000
3E00
7F00
E380
C180
C180
C180
C180
C180
E380
7F00
3E00
ENDCHAR
STARTCHAR uni022C
ENCODING 556
SWIDTH 777 0
DWIDTH 16 0
BBX 13 20 1 0
BITMAP
1FC0
0000
0EC0
0B80
1000
0F80
3FE0
7070
6030
E038
C018
C018
C018
C018
C018
E038
6030
7070
3FE0
0F80
ENDCHAR
STARTCHAR uni022D
ENCODING 557
SWIDTH 556 0
DWIDTH 11 0
BBX 9 16 1 0
BITMAP
3F00
0000
1900
2700
0000
3E00
7F00
E380
C180
C180
C180
C180
C180
E380
7F00
3E00
ENDCHAR
STARTCHAR uni022E
ENCODING 558
SWIDTH 777 0
DWIDTH 16 0
BBX 13 18 1 0
BITMAP
0600
0600
0000
0F80
3FE0
7070
6030
E038
C018
C018
C018
C018
C018
E038
6030
7070
3FE0
0F80
ENDCHAR
STARTCHAR uni022F
ENCODING 559
SWIDTH 556 0
DWIDTH 11 0
BBX 9 14 1 0
BITMAP
0C00
0C00
0000
3E00
7F00
E380
C180
C180
C180
C180
C180
E380
7F00
3E00
ENDCHAR
STARTCHAR uni0230
ENCODING 560
SWIDTH 777 0
DWIDTH 16 0
BBX 13 19 1 0
BITMAP
1F80
0000
0600
0000
0F80
3FE0
7070
6030
E038
C018
C018
C018
C018
C018
E038
6030
7070
3FE0
0F80
ENDCHAR
STARTCHAR uni0231
ENCODING 561
SWIDTH 556 0
DWIDTH 11 0
BBX 9 16 1 0
BITMAP
3F00
0000
0C00
0C00
0000
3E00
7F00
E380
C180
C180
C180
C180
C180
E380
7F00
3E00
ENDCHAR
STARTCHAR uni0232
ENCODING 562
SWIDTH 666 0
DWIDTH 13 0
BBX 12 18 0 0
BITMAP
1F80
1F80
0000
C030
E070
6060
30C0
30C0
1980
0F00
0F00
0600
0600
0600
0600
0600
0600
0600
ENDCHAR
STARTCHAR uni0233
ENCODING 563
SWIDTH 500 0
DWIDTH 10 0
BBX 10 19 0 -5
BITMAP
3F00
3F00
0000
C0C0
C0C0
6180
6180
6180
3300
3300
1E00
1E00
0C00
0C00
0C00
0800
1800
7000
7000
ENDCHAR
STARTCHAR uni0234
ENCODING 564
SWIDTH 424 0
DWIDTH 8 0
BBX 9 20 0 -5
BITMAP
6000
6000
6000
6000
6000
6000
6000
6000
6000
6000
6000
6000
6000
6000
6700
6F80
7980
3980
FF80
4F00
ENDCHAR
STARTCHAR uni0235
ENCODING 565
SWIDTH 754 0
DWIDTH 15 0
BBX 15 16 1 -5
BITMAP
DE00
FF00
E380
C180
C180
C180
C180
C180
C180
C180
C19C
01BE
01E6
00E6
03FE
013C
ENDCHAR
STARTCHAR uni0236
ENCODING 566
SWIDTH 437 0
DWIDTH 9 0
BBX 9 14 1 0
BITMAP
6000
6000
6000
F800
F800
6000
6000
6000
6700
6F80
7980
3980
FF80
4F00
ENDCHAR
STARTCHAR uni0237
ENCODING 567
SWIDTH 228 0
DWIDTH 4 0
BBX 4 16 -1 -5
BITMAP
30
30
30
30
30
30
30
30
30
30
30
30
30
30
F0
E0
ENDCHAR
STARTCHAR uni0238
ENCODING 568
SWIDTH 883 0
DWIDTH 18 0
BBX 16 15 1 0
BITMAP
0180
0180
0180
0180
3DBC
7FFE
63C7
C183
C183
C183
C183
C183
63C6
7FFE
3DFC
ENDCHAR
STARTCHAR uni0239
ENCODING 569
SWIDTH 883 0
DWIDTH 18 0
BBX 16 15 1 -4
BITMAP
3DBC
7FFE
63C7
C183
C183
C183
C183
C183
63C6
7FFE
3DBC
0180
0180
0180
0180
ENDCHAR
STARTCHAR uni023A
ENCODING 570
SWIDTH 666 0
DWIDTH 14 0
BBX 13 17 0 -1
BITMAP
0008
0710
0720
0DA0
0DC0
0D80
19C0
19C0
1AC0
3460
3FE0
7FF0
7030
6030
E018
C018
8000
ENDCHAR
STARTCHAR uni023B
ENCODING 571
SWIDTH 722 0
DWIDTH 15 0
BBX 13 17 1 -1
BITMAP
0008
0F90
3FE0
70E0
6070
E0B0
C100
C100
C200
C400
C400
E830
7030
70E0
3FC0
4F80
8000
ENDCHAR
STARTCHAR uni023C
ENCODING 572
SWIDTH 500 0
DWIDTH 10 0
BBX 12 15 0 -2
BITMAP
0030
0020
1F40
3F80
71C0
6100
6200
6400
6800
6800
70C0
3F80
3F00
4000
8000
ENDCHAR
STARTCHAR uni023D
ENCODING 573
SWIDTH 556 0
DWIDTH 11 0
BBX 11 15 0 0
BITMAP
6000
6000
6000
6000
6000
6000
6000
FC00
FC00
6000
6000
6000
6000
7FE0
7FE0
ENDCHAR
STARTCHAR uni023E
ENCODING 574
SWIDTH 610 0
DWIDTH 13 0
BBX 13 17 0 -1
BITMAP
0008
FFF0
FFF0
0620
0640
0680
0700
0700
0600
0600
0600
0E00
1600
2600
2600
4600
8000
ENDCHAR
STARTCHAR uni023F
ENCODING 575
SWIDTH 500 0
DWIDTH 10 0
BBX 8 15 1 -4
BITMAP
3C
FF
C3
C0
F8
3E
07
03
C3
FE
3C
18
18
0E
0E
ENDCHAR
STARTCHAR uni0240
ENCODING 576
SWIDTH 500 0
DWIDTH 10 0
BBX 8 15 1 -4
BITMAP
FF
FF
03
06
0C
18
30
60
C0
E0
F0
38
1C
0F
07
ENDCHAR
STARTCHAR uni0241
ENCODING 577
SWIDTH 589 0
DWIDTH 12 0
BBX 10 15 1 0
BITMAP
3E00
7F00
E180
C1C0
00C0
00C0
00C0
00C0
01C0
0380
0F80
0F00
0C00
0C00
0C00
ENDCHAR
STARTCHAR uni0242
ENCODING 578
SWIDTH 500 0
DWIDTH 10 0
BBX 9 11 0 0
BITMAP
3E00
7F00
C380
0180
0180
0380
1F00
1E00
1800
7E00
7E00
ENDCHAR
STARTCHAR uni0243
ENCODING 579
SWIDTH 666 0
DWIDTH 13 0
BBX 11 15 0 0
BITMAP
7F00
7F80
61C0
60C0
60C0
61C0
7F80
7FC0
60E0
6060
F860
6060
60E0
7FC0
7F80
ENDCHAR
STARTCHAR uni0244
ENCODING 580
SWIDTH 722 0
DWIDTH 14 0
BBX 13 15 0 0
BITMAP
6030
6030
6030
6030
6030
6030
6030
FFF8
6030
6030
6030
6030
3060
3FE0
0F80
ENDCHAR
STARTCHAR uni0245
ENCODING 581
SWIDTH 666 0
DWIDTH 14 0
BBX 13 15 0 0
BITMAP
0700
0700
0F00
0D80
0D80
1980
18C0
18C0
3060
3060
3060
6030
6030
6030
C018
ENDCHAR
STARTCHAR uni0246
ENCODING 582
SWIDTH 666 0
DWIDTH 13 0
BBX 10 19 1 -2
BITMAP
0100
0100
FFC0
FFC0
C200
C200
C400
C400
FF80
FF80
C800
C800
C800
D000
D000
FFC0
FFC0
2000
2000
ENDCHAR
STARTCHAR uni0247
ENCODING 583
SWIDTH 556 0
DWIDTH 11 0
BBX 9 15 1 -2
BITMAP
0200
0200
3E00
7F00
E780
C580
FF80
FF80
C800
D000
F180
7F00
3E00
2000
2000
ENDCHAR
STARTCHAR uni0248
ENCODING 584
SWIDTH 500 0
DWIDTH 11 0
BBX 9 15 1 0
BITMAP
0300
0300
0300
0300
0300
0300
1F80
0300
0300
0300
0300
C300
C700
7E00
3C00
ENDCHAR
STARTCHAR uni0249
ENCODING 585
SWIDTH 228 0
DWIDTH 4 0
BBX 4 20 0 -5
BITMAP
60
60
00
00
60
60
60
60
60
60
F0
60
60
60
60
60
60
60
E0
C0
ENDCHAR
STARTCHAR uni024A
ENCODING 586
SWIDTH 750 0
DWIDTH 15 0
BBX 14 20 1 -5
BITMAP
0FB0
3FF0
70F0
6030
E030
C030
C030
C030
C030
C030
E030
6030
70F0
3FF0
0F30
0030
0030
0030
003C
001C
ENDCHAR
STARTCHAR uni024B
ENCODING 587
SWIDTH 556 0
DWIDTH 11 0
BBX 11 16 1 -5
BITMAP
3D80
7F80
E380
C180
C180
C180
C180
C180
E380
7F80
3D80
0180
0180
0180
01E0
00E0
ENDCHAR
STARTCHAR uni024C
ENCODING 588
SWIDTH 722 0
DWIDTH 13 0
BBX 12 15 0 0
BITMAP
7FC0
7FE0
6070
6030
6030
6030
6060
FFE0
7F80
61C0
60C0
6060
6060
6060
6030
ENDCHAR
STARTCHAR uni024D
ENCODING 589
SWIDTH 333 0
DWIDTH 6 0
BBX 6 11 0 0
BITMAP
6C
7C
70
60
60
60
F8
60
60
60
60
ENDCHAR
STARTCHAR uni024E
ENCODING 590
SWIDTH 666 0
DWIDTH 13 0
BBX 12 15 0 0
BITMAP
C030
E070
6060
FFF0
30C0
1980
0F00
0F00
0600
0600
0600
0600
0600
0600
0600
ENDCHAR
STARTCHAR uni024F
ENCODING 591
SWIDTH 500 0
DWIDTH 10 0
BBX 10 16 0 -5
BITMAP
C0C0
6180
6180
6180
FFC0
3300
3300
1E00
1E00
0C00
0C00
0C00
0800
1800
7000
7000
ENDCHAR
STARTCHAR uni0250
ENCODING 592
SWIDTH 556 0
DWIDTH 11 0
BBX 9 11 1 0
BITMAP
DF00
FF80
E180
C180
C380
FF00
FC00
C180
C380
7F00
3E00
ENDCHAR
STARTCHAR uni0251
ENCODING 593
SWIDTH 576 0
DWIDTH 11 0
BBX 10 11 1 0
BITMAP
3CC0
7EC0
6380
C180
C180
C180
C180
C180
6380
7EC0
3CC0
ENDCHAR
STARTCHAR uni0252
ENCODING 594
SWIDTH 576 0
DWIDTH 12 0
BBX 10 11 1 0
BITMAP
CF00
DF80
7180
60C0
60C0
60C0
60C0
60C0
7180
DF80
CF00
ENDCHAR
STARTCHAR uni0253
ENCODING 595
SWIDTH 556 0
DWIDTH 11 0
BBX 9 15 1 0
BITMAP
7000
F000
C000
C000
DE00
FF00
E380
C180
C180
C180
C180
C180
E300
FF00
DE00
ENDCHAR
STARTCHAR uni0254
ENCODING 596
SWIDTH 500 0
DWIDTH 10 0
BBX 8 11 1 0
BITMAP
3C
7E
E6
C3
03
03
03
C3
E6
7E
3C
ENDCHAR
STARTCHAR uni0255
ENCODING 597
SWIDTH 500 0
DWIDTH 10 0
BBX 10 11 0 0
BITMAP
1F00
3F80
30C0
6000
6000
6700
7F80
7980
7180
FF80
4F00
ENDCHAR
STARTCHAR uni0256
ENCODING 598
SWIDTH 556 0
DWIDTH 11 0
BBX 11 20 1 -5
BITMAP
0180
0180
0180
0180
3D80
7F80
6380
C180
C180
C180
C180
C180
6380
7F80
3D80
0180
0180
0180
01E0
00E0
ENDCHAR
STARTCHAR uni0257
ENCODING 599
SWIDTH 556 0
DWIDTH 11 0
BBX 11 15 1 0
BITMAP
00E0
01E0
0180
0180
3D80
7F80
6380
C180
C180
C180
C180
C180
6380
7F80
3D80
ENDCHAR
STARTCHAR uni0258
ENCODING 600
SWIDTH 556 0
DWIDTH 11 0
BBX 9 11 1 0
BITMAP
3E00
7F00
6300
C180
FF80
FF80
0180
C180
E300
7F00
3C00
ENDCHAR
STARTCHAR uni025A
ENCODING 602
SWIDTH 731 0
DWIDTH 15 0
BBX 14 11 1 0
BITMAP
3E00
7F80
E180
C0E0
1FE0
FFE4
E0FC
C0D8
6180
7F80
1E00
ENDCHAR
STARTCHAR uni025B
ENCODING 603
SWIDTH 500 0
DWIDTH 11 0
BBX 10 11 1 0
BITMAP
3F00
FF80
C0C0
C000
7C00
7C00
E000
C000
E0C0
7F80
3F00
ENDCHAR
STARTCHAR uni025C
ENCODING 604
SWIDTH 500 0
DWIDTH 11 0
BBX 10 11 0 0
BITMAP
3F00
7FC0
C0C0
00C0
0F80
0F80
01C0
00C0
C1C0
7F80
3F00
ENDCHAR
STARTCHAR uni025D
ENCODING 605
SWIDTH 665 0
DWIDTH 13 0
BBX 13 11 0 0
BITMAP
3E00
FFC0
C1C0
01C8
03F8
1F38
1F00
0180
C180
7F80
3E00
ENDCHAR
STARTCHAR uni025E
ENCODING 606
SWIDTH 534 0
DWIDTH 11 0
BBX 9 11 1 0
BITMAP
1E00
7F80
6180
C180
CF00
CF00
C180
C180
6380
7F00
3E00
ENDCHAR
STARTCHAR uni025F
ENCODING 607
SWIDTH 297 0
DWIDTH 6 0
BBX 6 15 1 -5
BITMAP
30
30
30
30
30
30
30
FC
FC
30
30
30
30
F0
E0
ENDCHAR
STARTCHAR uni0260
ENCODING 608
SWIDTH 556 0
DWIDTH 11 0
BBX 11 20 1 -5
BITMAP
00E0
01E0
0180
0180
3D80
7F80
6380
C180
C180
C180
C180
C180
6380
7F80
3D80
0180
C180
E380
7F00
3E00
ENDCHAR
STARTCHAR uni0261
ENCODING 609
SWIDTH 556 0
DWIDTH 11 0
BBX 9 16 1 -5
BITMAP
3D80
7F80
E380
C180
C180
C180
C180
C180
E380
7F80
3D80
0180
0180
C300
FF00
7E00
ENDCHAR
STARTCHAR uni0262
ENCODING 610
SWIDTH 584 0
DWIDTH 12 0
BBX 10 11 1 0
BITMAP
1F00
7F80
61C0
C0C0
C000
C3C0
C3C0
C0C0
61C0
7FC0
1EC0
ENDCHAR
STARTCHAR uni0263
ENCODING 611
SWIDTH 500 0
DWIDTH 10 0
BBX 11 16 0 -5
BITMAP
C060
60C0
60C0
3180
3180
3980
1B00
1B00
0E00
0E00
0E00
0E00
1B00
1B00
1F00
0E00
ENDCHAR
STARTCHAR uni0264
ENCODING 612
SWIDTH 609 0
DWIDTH 12 0
BBX 13 11 0 0
BITMAP
78F0
F8F8
4D90
0D80
0700
0700
0700
0D80
0D80
0F80
0700
ENDCHAR
STARTCHAR uni0265
ENCODING 613
SWIDTH 556 0
DWIDTH 11 0
BBX 9 16 1 -5
BITMAP
C180
C180
C180
C180
C180
C180
C180
C180
E380
7F80
3D80
0180
0180
0180
0180
0180
ENDCHAR
STARTCHAR uni0266
ENCODING 614
SWIDTH 556 0
DWIDTH 11 0
BBX 9 15 1 0
BITMAP
7000
F000
C000
C000
DE00
FF00
E380
C180
C180
C180
C180
C180
C180
C180
C180
ENDCHAR
STARTCHAR uni0267
ENCODING 615
SWIDTH 556 0
DWIDTH 11 0
BBX 9 20 1 -5
BITMAP
7000
F000
C000
C000
DE00
FF00
E380
C180
C180
C180
C180
C180
C180
C180
C180
0180
0180
0180
0780
0700
ENDCHAR
STARTCHAR uni0268
ENCODING 616
SWIDTH 228 0
DWIDTH 4 0
BBX 4 15 0 0
BITMAP
60
60
00
00
60
60
60
F0
F0
60
60
60
60
60
60
ENDCHAR
STARTCHAR uni0269
ENCODING 617
SWIDTH 240 0
DWIDTH 4 0
BBX 3 11 1 0
BITMAP
C0
C0
C0
C0
C0
C0
C0
C0
C0
E0
60
ENDCHAR
STARTCHAR uni026A
ENCODING 618
SWIDTH 228 0
DWIDTH 4 0
BBX 2 11 1 0
BITMAP
C0
C0
C0
C0
C0
C0
C0
C0
C0
C0
C0
ENDCHAR
STARTCHAR uni026B
ENCODING 619
SWIDTH 327 0
DWIDTH 7 0
BBX 6 15 0 0
BITMAP
30
30
30
30
30
30
74
B8
30
30
30
30
30
30
30
ENDCHAR
STARTCHAR uni026C
ENCODING 620
SWIDTH 288 0
DWIDTH 6 0
BBX 6 15 0 0
BITMAP
30
30
30
30
30
70
B0
B0
7C
30
30
30
30
30
30
ENDCHAR
STARTCHAR uni026D
ENCODING 621
SWIDTH 228 0
DWIDTH 4 0
BBX 4 20 1 -5
BITMAP
C0
C0
C0
C0
C0
C0
C0
C0
C0
C0
C0
C0
C0
C0
C0
C0
C0
C0
F0
70
ENDCHAR
STARTCHAR uni026E
ENCODING 622
SWIDTH 565 0
DWIDTH 11 0
BBX 9 20 1 -5
BITMAP
C000
C000
C000
C000
FF80
FF80
C300
C300
C600
CE00
C300
C380
C180
C180
C180
0180
0180
4300
7F00
3E00
ENDCHAR
STARTCHAR uni026F
ENCODING 623
SWIDTH 833 0
DWIDTH 17 0
BBX 15 11 1 0
BITMAP
C186
C186
C186
C186
C186
C186
C186
C186
C38E
7FFE
3CF6
ENDCHAR
STARTCHAR uni0270
ENCODING 624
SWIDTH 833 0
DWIDTH 17 0
BBX 15 16 1 -5
BITMAP
C186
C186
C186
C186
C186
C186
C186
C186
C38E
7FFE
3CF6
0006
0006
0006
0006
0006
ENDCHAR
STARTCHAR uni0271
ENCODING 625
SWIDTH 833 0
DWIDTH 17 0
BBX 15 16 1 -5
BITMAP
DF3C
FFFE
E1C6
C186
C186
C186
C186
C186
C186
C186
C186
0006
0006
0006
001E
001C
ENDCHAR
STARTCHAR uni0272
ENCODING 626
SWIDTH 556 0
DWIDTH 11 0
BBX 11 16 -1 -5
BITMAP
3780
3FC0
38E0
3060
3060
3060
3060
3060
3060
3060
3060
3000
3000
3000
F000
E000
ENDCHAR
STARTCHAR uni0273
ENCODING 627
SWIDTH 556 0
DWIDTH 11 0
BBX 11 16 1 -5
BITMAP
DE00
FF00
E380
C180
C180
C180
C180
C180
C180
C180
C180
0180
0180
0180
01E0
00E0
ENDCHAR
STARTCHAR uni0274
ENCODING 628
SWIDTH 541 0
DWIDTH 11 0
BBX 9 11 1 0
BITMAP
C180
E180
F180
F180
D980
DD80
CD80
C780
C780
C380
C180
ENDCHAR
STARTCHAR uni0275
ENCODING 629
SWIDTH 556 0
DWIDTH 11 0
BBX 9 11 1 0
BITMAP
3E00
7F00
6300
C180
FF80
FF80
C180
C180
6300
7F00
3E00
ENDCHAR
STARTCHAR uni0276
ENCODING 630
SWIDTH 721 0
DWIDTH 14 0
BBX 12 11 1 0
BITMAP
3BF0
7FF0
6700
C300
C3E0
C3E0
C300
C300
6700
7FF0
3BF0
ENDCHAR
STARTCHAR uni0277
ENCODING 631
SWIDTH 689 0
DWIDTH 14 0
BBX 12 11 1 0
BITMAP
1F80
3FC0
70E0
E070
C030
C630
C630
C630
E670
7FE0
39C0
ENDCHAR
STARTCHAR uni0278
ENCODING 632
SWIDTH 556 0
DWIDTH 11 0
BBX 10 20 1 -5
BITMAP
0C00
0C00
0C00
0C00
3F00
7F80
6D80
CCC0
CCC0
CCC0
CCC0
CCC0
6D80
7F80
3F00
0C00
0C00
0C00
0C00
0C00
ENDCHAR
STARTCHAR uni0279
ENCODING 633
SWIDTH 333 0
DWIDTH 7 0
BBX 6 11 0 0
BITMAP
0C
0C
0C
0C
0C
0C
0C
0C
1C
FC
EC
ENDCHAR
STARTCHAR uni027A
ENCODING 634
SWIDTH 333 0
DWIDTH 7 0
BBX 6 15 0 0
BITMAP
0C
0C
0C
0C
0C
0C
0C
0C
0C
0C
0C
0C
1C
FC
EC
ENDCHAR
STARTCHAR uni027B
ENCODING 635
SWIDTH 333 0
DWIDTH 7 0
BBX 8 16 0 -5
BITMAP
0C
0C
0C
0C
0C
0C
0C
0C
1C
FC
EC
0C
0C
0C
0F
07
ENDCHAR
STARTCHAR uni027C
ENCODING 636
SWIDTH 333 0
DWIDTH 7 0
BBX 6 16 1 -5
BITMAP
DC
FC
E0
C0
C0
C0
C0
C0
C0
C0
C0
C0
C0
C0
C0
C0
ENDCHAR
STARTCHAR uni027D
ENCODING 637
SWIDTH 333 0
DWIDTH 7 0
BBX 6 16 1 -5
BITMAP
DC
FC
E0
C0
C0
C0
C0
C0
C0
C0
C0
C0
C0
C0
F0
70
ENDCHAR
STARTCHAR uni027E
ENCODING 638
SWIDTH 277 0
DWIDTH 6 0
BBX 4 11 1 0
BITMAP
70
F0
C0
C0
C0
C0
C0
C0
C0
C0
C0
ENDCHAR
STARTCHAR uni027F
ENCODING 639
SWIDTH 277 0
DWIDTH 6 0
BBX 4 16 0 -5
BITMAP
E0
F0
30
30
30
30
30
30
30
30
30
30
30
30
30
30
ENDCHAR
STARTCHAR uni0280
ENCODING 640
SWIDTH 534 0
DWIDTH 11 0
BBX 9 11 1 0
BITMAP
FE00
FF80
C180
C180
C380
FF00
FE00
C700
C300
C300
C180
ENDCHAR
STARTCHAR uni0281
ENCODING 641
SWIDTH 534 0
DWIDTH 11 0
BBX 9 11 1 0
BITMAP
C180
C300
C300
C700
FE00
FF00
C380
C180
C180
FF80
FE00
ENDCHAR
STARTCHAR uni0282
ENCODING 642
SWIDTH 500 0
DWIDTH 10 0
BBX 8 16 1 -5
BITMAP
3C
7F
C3
C0
F8
7E
07
C3
E3
FE
DC
C0
C0
C0
F0
70
ENDCHAR
STARTCHAR uni0283
ENCODING 643
SWIDTH 273 0
DWIDTH 6 0
BBX 6 20 0 -5
BITMAP
1C
3C
30
30
30
30
30
30
30
30
30
30
30
30
30
30
30
30
F0
E0
ENDCHAR
STARTCHAR uni0284
ENCODING 644
SWIDTH 297 0
DWIDTH 6 0
BBX 7 20 0 -5
BITMAP
1E
3E
30
30
30
30
30
30
30
30
30
30
FC
FC
30
30
30
30
F0
E0
ENDCHAR
STARTCHAR uni0285
ENCODING 645
SWIDTH 273 0
DWIDTH 5 0
BBX 6 16 0 -5
BITMAP
E0
F0
30
30
30
30
30
30
30
30
30
30
30
30
3C
1C
ENDCHAR
STARTCHAR uni0286
ENCODING 646
SWIDTH 449 0
DWIDTH 9 0
BBX 10 20 -1 -5
BITMAP
01C0
03C0
0300
0300
0300
0300
0300
0300
0300
0300
0300
0300
0300
0300
7300
FF00
CE00
CF00
FF80
7900
ENDCHAR
STARTCHAR uni0287
ENCODING 647
SWIDTH 277 0
DWIDTH 6 0
BBX 5 13 0 0
BITMAP
E0
F0
30
30
30
30
30
30
F8
F8
30
30
30
ENDCHAR
STARTCHAR uni0288
ENCODING 648
SWIDTH 277 0
DWIDTH 6 0
BBX 5 19 1 -5
BITMAP
60
60
60
F8
F8
60
60
60
60
60
60
60
60
60
60
60
60
78
38
ENDCHAR
STARTCHAR uni0289
ENCODING 649
SWIDTH 556 0
DWIDTH 11 0
BBX 11 11 0 0
BITMAP
60C0
60C0
60C0
FFE0
FFE0
60C0
60C0
60C0
71C0
3FC0
1EC0
ENDCHAR
STARTCHAR uni028A
ENCODING 650
SWIDTH 596 0
DWIDTH 12 0
BBX 10 11 1 0
BITMAP
F3C0
F3C0
2100
4080
C0C0
C0C0
C0C0
C0C0
6180
7F80
1E00
ENDCHAR
STARTCHAR uni028B
ENCODING 651
SWIDTH 528 0
DWIDTH 11 0
BBX 9 11 1 0
BITMAP
CF00
CF80
C180
C180
C180
C180
C180
C300
E300
7E00
3C00
ENDCHAR
STARTCHAR uni028C
ENCODING 652
SWIDTH 500 0
DWIDTH 10 0
BBX 9 11 1 0
BITMAP
1C00
1C00
3600
3600
3600
3600
6300
6300
6300
C180
C180
ENDCHAR
STARTCHAR uni028D
ENCODING 653
SWIDTH 722 0
DWIDTH 14 0
BBX 13 11 1 0
BITMAP
38E0
38E0
68B0
6DB0
6DB0
6DB0
6DB0
6D30
C718
C718
C718
ENDCHAR
STARTCHAR uni028E
ENCODING 654
SWIDTH 500 0
DWIDTH 10 0
BBX 9 15 1 0
BITMAP
0700
0F00
0E00
0C00
1C00
1C00
1C00
3600
3600
3600
6300
6300
6300
C180
C180
ENDCHAR
STARTCHAR uni028F
ENCODING 655
SWIDTH 475 0
DWIDTH 10 0
BBX 10 11 0 0
BITMAP
C0C0
6180
3300
3300
1E00
1E00
0C00
0C00
0C00
0C00
0C00
ENDCHAR
STARTCHAR uni0290
ENCODING 656
SWIDTH 500 0
DWIDTH 10 0
BBX 10 16 1 -5
BITMAP
FF00
FF00
0300
0600
0C00
1800
3000
6000
C000
FF00
FF00
0300
0300
0300
03C0
01C0
ENDCHAR
STARTCHAR uni0291
ENCODING 657
SWIDTH 553 0
DWIDTH 11 0
BBX 10 13 1 -2
BITMAP
FF00
FF00
0300
0600
0C00
1B80
37C0
66C0
CCC0
FFC0
FF80
1800
0800
ENDCHAR
STARTCHAR uni0292
ENCODING 658
SWIDTH 471 0
DWIDTH 9 0
BBX 8 16 0 -5
BITMAP
7F
7F
06
06
0C
1C
06
07
03
03
03
03
03
86
FE
7C
ENDCHAR
STARTCHAR uni0293
ENCODING 659
SWIDTH 471 0
DWIDTH 9 0
BBX 9 16 0 -5
BITMAP
7F00
7F00
0700
0600
0C00
1C00
0600
0700
0300
0300
7300
FF00
CF00
C700
FF80
7900
ENDCHAR
STARTCHAR uni0294
ENCODING 660
SWIDTH 500 0
DWIDTH 10 0
BBX 8 15 1 0
BITMAP
3C
7E
E6
C3
03
03
03
03
07
06
3E
38
30
30
30
ENDCHAR
STARTCHAR uni0295
ENCODING 661
SWIDTH 500 0
DWIDTH 10 0
BBX 9 15 1 0
BITMAP
1E00
7F00
6380
C180
C000
C000
C000
C000
E000
6000
7C00
1C00
0C00
0C00
0C00
ENDCHAR
STARTCHAR uni0296
ENCODING 662
SWIDTH 500 0
DWIDTH 10 0
BBX 8 15 1 0
BITMAP
30
30
30
38
3E
06
07
03
03
03
03
C3
E6
7E
3C
ENDCHAR
STARTCHAR uni0297
ENCODING 663
SWIDTH 500 0
DWIDTH 10 0
BBX 9 16 1 -5
BITMAP
1E00
7F00
6380
C180
C000
C000
C000
C000
C000
C000
C000
C000
C180
6380
7F00
1E00
ENDCHAR
STARTCHAR uni0298
ENCODING 664
SWIDTH 777 0
DWIDTH 16 0
BBX 13 15 1 0
BITMAP
0F80
3FE0
7070
6030
E038
C018
C018
C618
C618
C018
E038
6030
7070
3FE0
0F80
ENDCHAR
STARTCHAR uni0299
ENCODING 665
SWIDTH 530 0
DWIDTH 10 0
BBX 8 11 1 0
BITMAP
FE
FF
C3
C3
FE
FE
C3
C3
C3
FF
FE
ENDCHAR
STARTCHAR uni029A
ENCODING 666
SWIDTH 534 0
DWIDTH 11 0
BBX 9 11 1 0
BITMAP
3C00
FF00
C300
C180
7980
7980
C180
C180
E300
7F00
3E00
ENDCHAR
STARTCHAR uni029B
ENCODING 667
SWIDTH 584 0
DWIDTH 12 0
BBX 13 13 1 0
BITMAP
0038
0078
1F40
7FC0
61C0
C0C0
C000
C3C0
C3C0
C0C0
61C0
7FC0
1EC0
ENDCHAR
STARTCHAR uni029C
ENCODING 668
SWIDTH 556 0
DWIDTH 11 0
BBX 9 11 1 0
BITMAP
C180
C180
C180
C180
FF80
FF80
C180
C180
C180
C180
C180
ENDCHAR
STARTCHAR uni029D
ENCODING 669
SWIDTH 374 0
DWIDTH 7 0
BBX 8 20 -1 -5
BITMAP
06
06
00
00
06
06
06
06
06
06
06
06
06
06
7F
FF
C6
C6
FE
7C
ENDCHAR
STARTCHAR uni029E
ENCODING 670
SWIDTH 500 0
DWIDTH 10 0
BBX 9 16 0 -5
BITMAP
C180
6180
3180
3180
1980
0F80
0F80
0D80
1980
3180
E180
0180
0180
0180
0180
0180
ENDCHAR
STARTCHAR uni029F
ENCODING 671
SWIDTH 423 0
DWIDTH 8 0
BBX 6 11 1 0
BITMAP
C0
C0
C0
C0
C0
C0
C0
C0
C0
FC
FC
ENDCHAR
STARTCHAR uni02A0
ENCODING 672
SWIDTH 556 0
DWIDTH 11 0
BBX 11 20 1 -5
BITMAP
00E0
01E0
0180
0180
3D80
7F80
6380
C180
C180
C180
C180
C180
6380
7F80
3D80
0180
0180
0180
0180
0180
ENDCHAR
STARTCHAR uni02A1
ENCODING 673
SWIDTH 500 0
DWIDTH 10 0
BBX 8 15 1 0
BITMAP
3C
7E
E6
C3
03
03
03
03
06
3E
3C
30
FC
FC
30
ENDCHAR
STARTCHAR uni02A2
ENCODING 674
SWIDTH 500 0
DWIDTH 10 0
BBX 9 15 1 0
BITMAP
1E00
7F00
6380
C180
C000
C000
C000
C000
6000
7C00
3C00
0C00
3F00
3F00
0C00
ENDCHAR
STARTCHAR uni02A3
ENCODING 675
SWIDTH 944 0
DWIDTH 19 0
BBX 17 15 1 0
BITMAP
018000
018000
018000
018000
3DFF80
7FFF80
638380
C18300
C18600
C18C00
C19800
C1B000
63E000
7FFF80
3DFF80
ENDCHAR
STARTCHAR uni02A4
ENCODING 676
SWIDTH 886 0
DWIDTH 18 0
BBX 16 20 1 -5
BITMAP
0180
0180
0180
0180
3DFF
7FFF
6386
C186
C18C
C19C
C186
C186
6383
7F83
3D83
0003
0083
00C6
00FE
007C
ENDCHAR
STARTCHAR uni02A5
ENCODING 677
SWIDTH 998 0
DWIDTH 20 0
BBX 18 17 1 -2
BITMAP
030000
030000
030000
030000
3BFF00
7FFF00
670700
C30600
C30C00
C31B80
C337C0
C366C0
E7CCC0
7FFFC0
3BFF80
001800
000800
ENDCHAR
STARTCHAR uni02A6
ENCODING 678
SWIDTH 713 0
DWIDTH 14 0
BBX 12 14 1 0
BITMAP
6000
6000
6000
FFE0
FFF0
6630
6600
6780
63E0
6070
6030
6030
7FE0
3FC0
ENDCHAR
STARTCHAR uni02A7
ENCODING 679
SWIDTH 446 0
DWIDTH 9 0
BBX 9 20 0 -5
BITMAP
0380
6780
6600
6600
FE00
FE00
6600
6600
6600
6600
6600
6600
6600
7E00
3E00
0600
0600
0600
1E00
1C00
ENDCHAR
STARTCHAR uni02A8
ENCODING 680
SWIDTH 755 0
DWIDTH 15 0
BBX 14 14 1 0
BITMAP
6000
6000
6000
F8F0
F9F8
639C
630C
6300
6370
63F8
6398
6398
7FF8
3CF0
ENDCHAR
STARTCHAR uni02A9
ENCODING 681
SWIDTH 762 0
DWIDTH 15 0
BBX 14 20 0 -5
BITMAP
1C00
3C00
3000
3000
FF78
FFF8
338C
330C
330C
330C
330C
330C
330C
330C
330C
000C
000C
000C
003C
0038
ENDCHAR
STARTCHAR uni02AA
ENCODING 682
SWIDTH 675 0
DWIDTH 14 0
BBX 12 15 1 0
BITMAP
C000
C000
C000
C000
C7C0
CFF0
D830
D800
DF80
CFE0
C070
C030
F030
FFE0
DFC0
ENDCHAR
STARTCHAR uni02AB
ENCODING 683
SWIDTH 617 0
DWIDTH 12 0
BBX 10 15 1 0
BITMAP
C000
C000
C000
C000
FFC0
FFC0
C0C0
C180
C300
C600
CC00
D800
F000
FFC0
FFC0
ENDCHAR
STARTCHAR uni02AC
ENCODING 684
SWIDTH 485 0
DWIDTH 10 0
BBX 9 15 0 0
BITMAP
8880
8880
5500
5500
5500
3600
2200
0000
8880
8880
5500
5500
5500
3600
2200
ENDCHAR
STARTCHAR uni02AD
ENCODING 685
SWIDTH 563 0
DWIDTH 11 0
BBX 9 15 1 0
BITMAP
FF80
FF80
C180
C180
C180
0000
0000
0000
0000
0000
FF80
FF80
C180
C180
C180
ENDCHAR
STARTCHAR uni02AE
ENCODING 686
SWIDTH 616 0
DWIDTH 12 0
BBX 10 16 1 -5
BITMAP
E0C0
F0C0
30C0
30C0
30C0
30C0
30C0
30C0
31C0
3FC0
1EC0
00C0
00C0
00C0
00C0
00C0
ENDCHAR
STARTCHAR uni02AF
ENCODING 687
SWIDTH 656 0
DWIDTH 13 0
BBX 12 16 1 -5
BITMAP
E0C0
F0C0
30C0
30C0
30C0
30C0
30C0
30C0
31C0
3FC0
1EC0
00C0
00C0
00C0
00F0
0070
ENDCHAR
STARTCHAR uni02B0
ENCODING 688
SWIDTH 370 0
DWIDTH 7 0
BBX 5 9 1 5
BITMAP
80
80
B0
C8
88
88
88
88
88
ENDCHAR
STARTCHAR uni02B1
ENCODING 689
SWIDTH 370 0
DWIDTH 7 0
BBX 5 9 1 5
BITMAP
40
80
B0
C8
88
88
88
88
88
ENDCHAR
STARTCHAR uni02B2
ENCODING 690
SWIDTH 179 0
DWIDTH 4 0
BBX 3 12 0 2
BITMAP
20
00
20
20
20
20
20
20
20
20
20
C0
ENDCHAR
STARTCHAR uni02B3
ENCODING 691
SWIDTH 229 0
DWIDTH 5 0
BBX 4 7 1 5
BITMAP
B0
C0
80
80
80
80
80
ENDCHAR
STARTCHAR uni02B4
ENCODING 692
SWIDTH 229 0
DWIDTH 5 0
BBX 4 7 0 5
BITMAP
10
10
10
10
10
30
D0
ENDCHAR
STARTCHAR uni02B5
ENCODING 693
SWIDTH 229 0
DWIDTH 5 0
BBX 5 10 0 2
BITMAP
10
10
10
10
10
30
D0
10
10
18
ENDCHAR
STARTCHAR uni02B6
ENCODING 694
SWIDTH 357 0
DWIDTH 7 0
BBX 5 7 1 5
BITMAP
88
90
90
F0
88
88
F0
ENDCHAR
STARTCHAR uni02B7
ENCODING 695
SWIDTH 486 0
DWIDTH 10 0
BBX 9 7 0 5
BITMAP
8880
8880
5500
5500
5500
5500
2200
ENDCHAR
STARTCHAR uni02B8
ENCODING 696
SWIDTH 327 0
DWIDTH 7 0
BBX 7 10 0 2
BITMAP
82
44
44
28
28
28
10
10
20
60
ENDCHAR
ENDFONT
